<svg width="289" height="542" viewBox="0 0 289 542" fill="none" xmlns="http://www.w3.org/2000/svg">
<g filter="url(#filter0_d_1673_23603)">
<g clip-path="url(#clip0_1673_23603)">
<g filter="url(#filter1_i_1673_23603)">
<path d="M225.918 10H53.0825C33.0209 10 16.7578 26.2788 16.7578 46.3598V475.64C16.7578 495.721 33.0209 512 53.0825 512H225.918C245.979 512 262.243 495.721 262.243 475.64V46.3598C262.243 26.2788 245.979 10 225.918 10Z" fill="#E6E6E6"/>
</g>
<path d="M225.918 10.293H53.0825C33.1828 10.293 17.0508 26.4405 17.0508 46.3596V475.64C17.0508 495.559 33.1828 511.707 53.0825 511.707H225.918C245.818 511.707 261.95 495.559 261.95 475.64V46.3596C261.95 26.4405 245.818 10.293 225.918 10.293Z" stroke="url(#paint0_linear_1673_23603)"/>
<path d="M225.918 12.3457H53.0827C34.3155 12.3457 19.1016 27.5743 19.1016 46.3597V475.64C19.1016 494.426 34.3155 509.654 53.0827 509.654H225.918C244.685 509.654 259.899 494.426 259.899 475.64V46.3597C259.899 27.5743 244.685 12.3457 225.918 12.3457Z" fill="black"/>
<g filter="url(#filter2_i_1673_23603)">
<path d="M15 90.6961C15 90.3677 15 90.2035 15.0639 90.078C15.12 89.9678 15.2097 89.878 15.3199 89.8217C15.4452 89.7578 15.6093 89.7578 15.9374 89.7578H16.7576V107.351H15.9374C15.6093 107.351 15.4452 107.351 15.3199 107.287C15.2097 107.231 15.12 107.141 15.0639 107.031C15 106.906 15 106.741 15 106.413V90.6961Z" fill="#CCCCCC"/>
</g>
<g filter="url(#filter3_i_1673_23603)">
<path d="M15 127.056C15 126.727 15 126.563 15.0639 126.437C15.12 126.327 15.2097 126.237 15.3199 126.181C15.4452 126.117 15.6093 126.117 15.9374 126.117H16.7576V162.477H15.9374C15.6093 162.477 15.4452 162.477 15.3199 162.413C15.2097 162.357 15.12 162.267 15.0639 162.157C15 162.031 15 161.867 15 161.539V127.056Z" fill="#CCCCCC"/>
</g>
<g filter="url(#filter4_i_1673_23603)">
<path d="M15 173.972C15 173.643 15 173.479 15.0639 173.353C15.12 173.243 15.2097 173.153 15.3199 173.097C15.4452 173.033 15.6093 173.033 15.9374 173.033H16.7576V209.393H15.9374C15.6093 209.393 15.4452 209.393 15.3199 209.329C15.2097 209.273 15.12 209.183 15.0639 209.073C15 208.947 15 208.783 15 208.455V173.972Z" fill="#CCCCCC"/>
</g>
<g filter="url(#filter5_i_1673_23603)">
<path d="M262.242 139.02H263.062C263.391 139.02 263.555 139.02 263.68 139.083C263.79 139.14 263.88 139.229 263.936 139.34C264 139.465 264 139.629 264 139.958V196.726C264 197.054 264 197.219 263.936 197.344C263.88 197.454 263.79 197.544 263.68 197.6C263.555 197.664 263.391 197.664 263.062 197.664H262.242V139.02Z" fill="#CCCCCC"/>
</g>
<mask id="mask0_1673_23603" style="mask-type:luminance" maskUnits="userSpaceOnUse" x="29" y="22" width="221" height="478">
<path d="M225.918 22.9023H53.0828C40.1398 22.9023 29.6475 33.4048 29.6475 46.3603V475.641C29.6475 488.596 40.1398 499.099 53.0828 499.099H225.918C238.861 499.099 249.353 488.596 249.353 475.641V46.3603C249.353 33.4048 238.861 22.9023 225.918 22.9023Z" fill="white"/>
</mask>
<g mask="url(#mask0_1673_23603)">
<path d="M225.918 22.9023H53.0828C40.1398 22.9023 29.6475 33.4048 29.6475 46.3603V475.641C29.6475 488.596 40.1398 499.099 53.0828 499.099H225.918C238.861 499.099 249.353 488.596 249.353 475.641V46.3603C249.353 33.4048 238.861 22.9023 225.918 22.9023Z" fill="white"/>
<path d="M249.353 22.9023H29.6475V498.828H249.353V22.9023Z" fill="white"/>
<mask id="mask1_1673_23603" style="mask-type:luminance" maskUnits="userSpaceOnUse" x="29" y="24" width="221" height="477">
<path d="M249.353 24.0742H29.6475V500.27H249.353V24.0742Z" fill="white"/>
</mask>
<g mask="url(#mask1_1673_23603)">
<mask id="mask2_1673_23603" style="mask-type:luminance" maskUnits="userSpaceOnUse" x="29" y="24" width="221" height="477">
<path d="M249.353 24.0742H29.6475V500.27H249.353V24.0742Z" fill="white"/>
</mask>
<g mask="url(#mask2_1673_23603)">
<mask id="mask3_1673_23603" style="mask-type:luminance" maskUnits="userSpaceOnUse" x="29" y="24" width="221" height="477">
<path d="M249.353 24.0742H29.6475V500.27H249.353V24.0742Z" fill="white"/>
</mask>
<g mask="url(#mask3_1673_23603)">
<path d="M249.353 24.0742H29.6475V500.27H249.353V24.0742Z" fill="white"/>
<path d="M50.1528 70.9436L45.7588 66.2989L50.1528 61.6543" stroke="#242B42" stroke-width="2" stroke-miterlimit="10" stroke-linecap="round" stroke-linejoin="round"/>
<path d="M45.3447 100.899H42.5605V90.9339H45.3447C49.0849 90.9339 51.0535 92.6932 51.0535 95.8601C51.0535 99.055 48.9443 100.899 45.3447 100.899ZM43.9385 92.2006V99.6321H45.1759C48.185 99.6321 49.6193 98.4498 49.6193 95.846C49.6193 93.3407 48.2413 92.2006 45.1759 92.2006H43.9385ZM58.1999 100.012L58.3123 100.068V100.969C57.9749 101.082 57.7499 101.124 57.3702 101.124C56.7234 101.124 56.3578 100.786 56.3016 100.223C55.6407 100.885 55.022 101.166 54.2205 101.166C53.0956 101.166 52.3926 100.491 52.3926 99.4773C52.3926 98.3232 53.4612 97.5209 56.2172 97.1409V96.7609C56.2172 95.8741 55.8516 95.48 55.1626 95.48C54.4596 95.48 53.869 95.8601 53.405 96.5357L53.2925 96.5497L52.4488 95.9867C53.0394 95.0015 54.1081 94.3681 55.2751 94.3681C56.6812 94.3681 57.4968 95.1282 57.4968 96.5357V99.7447C57.4968 100.026 57.5812 100.111 57.8061 100.111C57.9327 100.111 58.0171 100.082 58.1999 100.012ZM53.6862 99.3928C53.6862 99.8995 53.9956 100.181 54.5861 100.181C55.2048 100.181 55.7532 99.9136 56.2172 99.4632V97.9854C54.3612 98.295 53.6862 98.7032 53.6862 99.3928ZM60.3967 92.5947C59.9046 92.5947 59.5109 92.2288 59.5109 91.7362C59.5109 91.2435 59.8905 90.8635 60.3967 90.8635C60.8889 90.8635 61.2826 91.2576 61.2826 91.7502C61.2826 92.2288 60.8889 92.5947 60.3967 92.5947ZM61.0295 100.899H59.7499V94.6356H61.0295V100.899ZM64.4898 100.899H63.2103V90.582H64.4898V100.899ZM67.9783 103.967H66.5582L68.3158 100.308L65.7707 94.6356H67.2472L68.9767 99.0269H69.0048L70.8187 94.6356H72.2529L67.9783 103.967ZM79.542 90.9339L82.8323 97.4787H82.8605L86.1227 90.9339H87.9506V100.899H86.6007V92.7214H86.5726L82.9589 99.8151H82.7058L79.078 92.7214H79.0499L79.0639 100.899H77.7V90.9339H79.542ZM95.9995 97.9854H91.0921V98.0557C91.0921 99.3084 91.9358 100.082 93.0466 100.082C93.82 100.082 94.3684 99.7306 94.8465 98.9847L94.9589 98.9565L95.9151 99.4914C95.2964 100.575 94.284 101.166 93.0044 101.166C91.0499 101.166 89.7422 99.7728 89.7422 97.7742C89.7422 95.7334 91.064 94.3681 92.9341 94.3681C94.7761 94.3681 96.0135 95.6208 96.0135 97.7461C96.0135 97.8305 96.0135 97.8728 95.9995 97.9854ZM92.9482 95.4237C91.992 95.4237 91.289 96.029 91.1202 97.0846H94.6918C94.6215 96.043 93.9465 95.4237 92.9482 95.4237ZM100.164 101.166C98.4203 101.166 97.2533 99.8432 97.2533 97.7602C97.2533 95.7615 98.5469 94.3681 100.192 94.3681C101.12 94.3681 101.978 94.8467 102.498 95.7193C102.484 95.0719 102.484 94.3681 102.484 93.6785V90.582H103.764V100.899H102.54V99.8291C102.062 100.66 101.12 101.166 100.164 101.166ZM100.459 100.012C101.725 100.012 102.526 99.1113 102.526 97.7742C102.526 96.4653 101.683 95.5223 100.515 95.5223C99.3484 95.5223 98.575 96.3949 98.575 97.7602C98.575 99.1817 99.2921 100.012 100.459 100.012ZM114.547 96.409L117.613 100.674L117.514 100.899H116.108L113.113 96.606H111.609V100.899H110.216V90.9339H113.212C115.363 90.9339 116.558 91.8769 116.558 93.8192C116.558 95.1141 115.855 96.043 114.547 96.409ZM112.93 92.1303H111.609V95.4378H112.93C114.491 95.4378 115.18 94.9874 115.18 93.8192C115.18 92.5806 114.477 92.1303 112.93 92.1303ZM124.506 97.9854H119.599V98.0557C119.599 99.3084 120.442 100.082 121.553 100.082C122.327 100.082 122.875 99.7306 123.353 98.9847L123.466 98.9565L124.422 99.4914C123.803 100.575 122.791 101.166 121.511 101.166C119.557 101.166 118.249 99.7728 118.249 97.7742C118.249 95.7334 119.571 94.3681 121.441 94.3681C123.283 94.3681 124.52 95.6208 124.52 97.7461C124.52 97.8305 124.52 97.8728 124.506 97.9854ZM121.455 95.4237C120.499 95.4237 119.796 96.029 119.627 97.0846H123.198C123.128 96.043 122.453 95.4237 121.455 95.4237ZM133.986 94.3681C135.336 94.3681 136.193 95.2548 136.193 96.8453V100.899H134.914V97.3661C134.914 96.0853 134.45 95.5223 133.55 95.5223C132.58 95.5223 131.862 96.5075 131.862 97.8728V100.899H130.583V97.3661C130.583 96.0853 130.119 95.5223 129.219 95.5223C128.249 95.5223 127.532 96.5075 127.532 97.8728V100.899H126.252V94.6356H127.532V95.7193C128.038 94.8467 128.755 94.3681 129.655 94.3681C130.709 94.3681 131.413 94.9171 131.68 95.9304C132.2 94.8608 133.086 94.3681 133.986 94.3681ZM139.024 92.5947C138.532 92.5947 138.138 92.2288 138.138 91.7362C138.138 91.2435 138.518 90.8635 139.024 90.8635C139.516 90.8635 139.91 91.2576 139.91 91.7502C139.91 92.2288 139.516 92.5947 139.024 92.5947ZM139.656 100.899H138.377V94.6356H139.656V100.899ZM141.838 100.899V94.6356H143.117V95.7193C143.638 94.8467 144.439 94.3681 145.367 94.3681C146.858 94.3681 147.715 95.2548 147.715 96.8453V100.899H146.436V97.352C146.436 96.0712 145.972 95.5223 144.959 95.5223C143.863 95.5223 143.117 96.4371 143.117 97.7883V100.899H141.838ZM152.316 101.166C150.573 101.166 149.406 99.8432 149.406 97.7602C149.406 95.7615 150.699 94.3681 152.344 94.3681C153.272 94.3681 154.13 94.8467 154.65 95.7193C154.636 95.0719 154.636 94.3681 154.636 93.6785V90.582H155.916V100.899H154.693V99.8291C154.214 100.66 153.272 101.166 152.316 101.166ZM152.612 100.012C153.877 100.012 154.679 99.1113 154.679 97.7742C154.679 96.4653 153.835 95.5223 152.668 95.5223C151.501 95.5223 150.727 96.3949 150.727 97.7602C150.727 99.1817 151.444 100.012 152.612 100.012ZM163.875 97.9854H158.968V98.0557C158.968 99.3084 159.811 100.082 160.922 100.082C161.696 100.082 162.244 99.7306 162.722 98.9847L162.835 98.9565L163.791 99.4914C163.172 100.575 162.16 101.166 160.88 101.166C158.926 101.166 157.618 99.7728 157.618 97.7742C157.618 95.7334 158.94 94.3681 160.81 94.3681C162.652 94.3681 163.889 95.6208 163.889 97.7461C163.889 97.8305 163.889 97.8728 163.875 97.9854ZM160.824 95.4237C159.868 95.4237 159.165 96.029 158.996 97.0846H162.567C162.497 96.043 161.822 95.4237 160.824 95.4237ZM166.9 100.899H165.62V94.6356H166.788V95.8601C167.322 94.8045 167.983 94.3681 168.812 94.3681C169.431 94.3681 169.923 94.7059 170.162 95.4378L169.094 96.0571L168.967 96.029C168.812 95.663 168.615 95.5363 168.292 95.5363C167.603 95.5363 166.9 96.4371 166.9 97.9854V100.899ZM173.218 101.166C172.065 101.166 171.165 100.674 170.658 99.7729L171.572 99.1536L171.643 99.1676C171.994 99.7869 172.529 100.139 173.204 100.139C173.921 100.139 174.357 99.8151 174.357 99.3225C174.357 98.9284 174.146 98.6328 172.964 98.2106C171.319 97.6194 170.912 97.0142 170.912 96.1556C170.912 95.1845 171.755 94.3681 173.175 94.3681C174.286 94.3681 175.144 94.8889 175.481 95.7052L174.68 96.2542L174.553 96.2401C174.314 95.7052 173.836 95.3956 173.189 95.3956C172.543 95.3956 172.177 95.7193 172.177 96.1275C172.177 96.4934 172.346 96.7468 173.583 97.2253C175.144 97.8165 175.636 98.3654 175.636 99.3084C175.636 100.364 174.68 101.166 173.218 101.166Z" fill="#1D1E25"/>
<path d="M235.292 442.213H43.7088C42.4145 442.213 41.3652 443.263 41.3652 444.559V468.017C41.3652 469.312 42.4145 470.362 43.7088 470.362H235.292C236.587 470.362 237.636 469.312 237.636 468.017V444.559C237.636 443.263 236.587 442.213 235.292 442.213Z" fill="#449598"/>
<path d="M92.6303 462.151C91.8979 462.151 91.2119 462.011 90.5727 461.733C89.9329 461.455 89.3763 461.078 88.9029 460.604C88.4289 460.13 88.0528 459.573 87.7751 458.933C87.4968 458.292 87.3573 457.606 87.3573 456.873C87.3573 456.14 87.4962 455.453 87.7751 454.813C88.0534 454.173 88.4289 453.616 88.9023 453.142C89.3757 452.667 89.9323 452.291 90.5721 452.013C91.2113 451.734 91.8973 451.595 92.6303 451.595C93.3626 451.595 94.0487 451.734 94.6885 452.013C95.3283 452.291 95.8849 452.668 96.3582 453.142C96.8316 453.616 97.2072 454.173 97.4861 454.813C97.7644 455.453 97.9032 456.14 97.9032 456.873C97.9032 457.606 97.7638 458.292 97.4861 458.933C97.2078 459.573 96.8316 460.13 96.3582 460.604C95.8843 461.078 95.3277 461.454 94.6885 461.733C94.0487 462.012 93.3626 462.151 92.6303 462.151ZM94.2707 459.336L95.091 458.515L93.2162 456.638V453.94H92.0444V457.107L94.2707 459.336ZM88.8806 450.627L89.7009 451.448L87.2109 453.94L86.3906 453.119L88.8806 450.627ZM96.3799 450.627L98.8699 453.119L98.0497 453.94L95.5597 451.448L96.3799 450.627ZM92.6303 460.978C93.7727 460.978 94.7418 460.58 95.538 459.783C96.3336 458.987 96.7314 458.016 96.7314 456.873C96.7314 455.729 96.3336 454.759 95.538 453.963C94.7424 453.166 93.7727 452.768 92.6303 452.768C91.4878 452.768 90.5188 453.166 89.7231 453.963C88.9275 454.759 88.5291 455.729 88.5291 456.873C88.5291 458.016 88.9269 458.986 89.7231 459.783C90.5188 460.58 91.4878 460.978 92.6303 460.978Z" fill="white"/>
<path d="M108.093 459.375C107.182 459.375 106.534 459.022 106.059 458.16L106.633 457.766L106.772 457.799C107.117 458.423 107.51 458.677 108.085 458.677C108.708 458.677 109.143 458.25 109.143 457.741C109.143 457.249 108.897 456.92 107.855 456.494C106.666 455.993 106.255 455.484 106.255 454.72C106.255 453.899 106.928 453.25 108.035 453.25C108.856 453.25 109.43 453.603 109.766 454.178L109.208 454.572L109.069 454.539C108.823 454.162 108.519 453.94 108.019 453.94C107.428 453.94 107.092 454.269 107.092 454.712C107.092 455.122 107.305 455.352 108.331 455.82C109.643 456.411 109.979 456.912 109.979 457.709C109.979 458.62 109.2 459.375 108.093 459.375ZM112.743 459.375C111.595 459.375 110.848 458.571 110.848 457.388C110.848 456.231 111.619 455.41 112.743 455.41C113.457 455.41 114.08 455.73 114.465 456.403L113.908 456.756L113.842 456.74C113.539 456.255 113.202 456.067 112.759 456.067C112.103 456.067 111.619 456.567 111.619 457.38C111.619 458.209 112.103 458.718 112.768 458.718C113.235 458.718 113.571 458.521 113.858 458.037L113.924 458.021L114.474 458.365C114.096 459.039 113.465 459.375 112.743 459.375ZM115.444 459.219V453.201H116.191V455.016V456.198C116.494 455.689 116.962 455.41 117.503 455.41C118.373 455.41 118.873 455.927 118.873 456.855V459.219H118.127V457.15C118.127 456.403 117.856 456.083 117.265 456.083C116.626 456.083 116.191 456.617 116.191 457.405V459.219H115.444ZM123.51 457.52H120.647V457.561C120.647 458.292 121.139 458.743 121.787 458.743C122.238 458.743 122.558 458.538 122.837 458.103L122.903 458.086L123.46 458.398C123.1 459.03 122.509 459.375 121.763 459.375C120.622 459.375 119.86 458.563 119.86 457.397C119.86 456.206 120.631 455.41 121.722 455.41C122.796 455.41 123.518 456.14 123.518 457.38C123.518 457.429 123.518 457.454 123.51 457.52ZM121.73 456.026C121.172 456.026 120.762 456.379 120.663 456.994H122.747C122.706 456.387 122.312 456.026 121.73 456.026ZM125.939 459.375C124.922 459.375 124.241 458.604 124.241 457.388C124.241 456.223 124.995 455.41 125.955 455.41C126.497 455.41 126.997 455.689 127.3 456.198C127.292 455.82 127.292 455.41 127.292 455.007V453.201H128.039V459.219H127.325V458.595C127.046 459.08 126.497 459.375 125.939 459.375ZM126.111 458.702C126.849 458.702 127.317 458.177 127.317 457.397C127.317 456.633 126.825 456.083 126.144 456.083C125.463 456.083 125.012 456.592 125.012 457.388C125.012 458.218 125.43 458.702 126.111 458.702ZM132.64 455.566V459.219H131.902V458.595C131.59 459.113 131.114 459.375 130.614 459.375C129.802 459.375 129.31 458.858 129.31 457.889V455.566H130.056V457.668C130.056 458.382 130.327 458.702 130.868 458.702C131.459 458.702 131.894 458.177 131.894 457.38V455.566H132.64ZM134.646 459.219H133.9V453.201H134.646V459.219ZM139.29 457.52H136.427V457.561C136.427 458.292 136.919 458.743 137.567 458.743C138.018 458.743 138.338 458.538 138.617 458.103L138.683 458.086L139.241 458.398C138.88 459.03 138.289 459.375 137.543 459.375C136.403 459.375 135.64 458.563 135.64 457.397C135.64 456.206 136.411 455.41 137.502 455.41C138.576 455.41 139.298 456.14 139.298 457.38C139.298 457.429 139.298 457.454 139.29 457.52ZM137.51 456.026C136.952 456.026 136.542 456.379 136.444 456.994H138.527C138.486 456.387 138.092 456.026 137.51 456.026ZM142.735 459.219V455.566H143.481V456.198C143.785 455.689 144.252 455.41 144.794 455.41C145.663 455.41 146.163 455.927 146.163 456.855V459.219H145.417V457.15C145.417 456.403 145.146 456.083 144.556 456.083C143.916 456.083 143.481 456.617 143.481 457.405V459.219H142.735ZM150.808 457.52H147.946V457.561C147.946 458.292 148.438 458.743 149.086 458.743C149.537 458.743 149.857 458.538 150.136 458.103L150.201 458.086L150.759 458.398C150.398 459.03 149.808 459.375 149.061 459.375C147.921 459.375 147.158 458.563 147.158 457.397C147.158 456.206 147.929 455.41 149.02 455.41C150.095 455.41 150.816 456.14 150.816 457.38C150.816 457.429 150.816 457.454 150.808 457.52ZM149.028 456.026C148.471 456.026 148.061 456.379 147.962 456.994H150.045C150.004 456.387 149.611 456.026 149.028 456.026ZM153.008 459.334H152.68L151.343 455.566H152.138L152.917 458.045H152.934L153.926 455.607H154.172L155.149 458.045H155.165L155.961 455.566H156.74L155.403 459.334H155.083L154.049 456.896H154.033L153.008 459.334ZM160.695 459.219H159.949V455.566H160.629V456.28C160.941 455.664 161.327 455.41 161.811 455.41C162.171 455.41 162.459 455.607 162.598 456.034L161.975 456.395L161.901 456.379C161.811 456.165 161.696 456.091 161.507 456.091C161.105 456.091 160.695 456.617 160.695 457.52V459.219ZM166.532 457.52H163.67V457.561C163.67 458.292 164.162 458.743 164.81 458.743C165.261 458.743 165.581 458.538 165.86 458.103L165.925 458.086L166.483 458.398C166.122 459.03 165.532 459.375 164.785 459.375C163.645 459.375 162.882 458.563 162.882 457.397C162.882 456.206 163.653 455.41 164.744 455.41C165.819 455.41 166.54 456.14 166.54 457.38C166.54 457.429 166.54 457.454 166.532 457.52ZM164.752 456.026C164.195 456.026 163.784 456.379 163.686 456.994H165.769C165.728 456.387 165.335 456.026 164.752 456.026ZM172.062 455.41C172.849 455.41 173.35 455.927 173.35 456.855V459.219H172.603V457.159C172.603 456.411 172.332 456.083 171.807 456.083C171.242 456.083 170.823 456.658 170.823 457.454V459.219H170.077V457.159C170.077 456.411 169.806 456.083 169.281 456.083C168.715 456.083 168.297 456.658 168.297 457.454V459.219H167.55V455.566H168.297V456.198C168.592 455.689 169.01 455.41 169.535 455.41C170.151 455.41 170.561 455.73 170.717 456.321C171.02 455.697 171.537 455.41 172.062 455.41ZM175.001 454.375C174.713 454.375 174.484 454.162 174.484 453.874C174.484 453.587 174.705 453.365 175.001 453.365C175.288 453.365 175.517 453.595 175.517 453.883C175.517 454.162 175.288 454.375 175.001 454.375ZM175.37 459.219H174.623V455.566H175.37V459.219ZM176.642 459.219V455.566H177.388V456.198C177.691 455.689 178.159 455.41 178.7 455.41C179.57 455.41 180.07 455.927 180.07 456.855V459.219H179.324V457.15C179.324 456.403 179.053 456.083 178.463 456.083C177.823 456.083 177.388 456.617 177.388 457.405V459.219H176.642ZM182.755 459.375C181.738 459.375 181.057 458.604 181.057 457.388C181.057 456.223 181.811 455.41 182.771 455.41C183.312 455.41 183.813 455.689 184.116 456.198C184.108 455.82 184.108 455.41 184.108 455.007V453.201H184.855V459.219H184.141V458.595C183.862 459.08 183.312 459.375 182.755 459.375ZM182.927 458.702C183.665 458.702 184.133 458.177 184.133 457.397C184.133 456.633 183.641 456.083 182.96 456.083C182.279 456.083 181.828 456.592 181.828 457.388C181.828 458.218 182.246 458.702 182.927 458.702ZM189.497 457.52H186.634V457.561C186.634 458.292 187.127 458.743 187.775 458.743C188.226 458.743 188.546 458.538 188.824 458.103L188.89 458.086L189.448 458.398C189.087 459.03 188.496 459.375 187.75 459.375C186.61 459.375 185.847 458.563 185.847 457.397C185.847 456.206 186.618 455.41 187.709 455.41C188.783 455.41 189.505 456.14 189.505 457.38C189.505 457.429 189.505 457.454 189.497 457.52ZM187.717 456.026C187.159 456.026 186.749 456.379 186.651 456.994H188.734C188.693 456.387 188.299 456.026 187.717 456.026ZM191.262 459.219H190.515V455.566H191.196V456.28C191.508 455.664 191.893 455.41 192.377 455.41C192.738 455.41 193.025 455.607 193.165 456.034L192.541 456.395L192.467 456.379C192.377 456.165 192.262 456.091 192.074 456.091C191.672 456.091 191.262 456.617 191.262 457.52V459.219Z" fill="white"/>
<g filter="url(#filter6_d_1673_23603)">
<path d="M40.1934 125.53C40.1934 121.643 43.3411 118.492 47.2239 118.492H229.433C233.316 118.492 236.464 121.643 236.464 125.53V219.948C236.464 223.834 233.316 226.985 229.433 226.985H47.2239C43.3411 226.985 40.1934 223.834 40.1934 219.948V125.53Z" fill="white"/>
</g>
<path d="M87.1338 195.904H85.5098V190.091H87.1338C89.3151 190.091 90.4634 191.117 90.4634 192.964C90.4634 194.828 89.233 195.904 87.1338 195.904ZM86.3136 190.83V195.165H87.0354C88.7901 195.165 89.6268 194.475 89.6268 192.956C89.6268 191.495 88.8229 190.83 87.0354 190.83H86.3136ZM94.8944 194.204H92.0318V194.245C92.0318 194.976 92.524 195.428 93.1719 195.428C93.6231 195.428 93.943 195.222 94.2218 194.787L94.2875 194.771L94.8452 195.083C94.4843 195.715 93.8937 196.06 93.1473 196.06C92.0072 196.06 91.2444 195.247 91.2444 194.081C91.2444 192.891 92.0154 192.094 93.1063 192.094C94.1808 192.094 94.9026 192.825 94.9026 194.065C94.9026 194.114 94.9026 194.139 94.8944 194.204ZM93.1145 192.71C92.5568 192.71 92.1466 193.063 92.0482 193.679H94.1316C94.0906 193.071 93.6969 192.71 93.1145 192.71ZM97.0522 196.06C96.3796 196.06 95.8547 195.772 95.5594 195.247L96.0926 194.886L96.1336 194.894C96.3386 195.255 96.6503 195.46 97.044 195.46C97.4623 195.46 97.7166 195.272 97.7166 194.984C97.7166 194.754 97.5936 194.582 96.9046 194.336C95.9449 193.991 95.707 193.638 95.707 193.137C95.707 192.57 96.1992 192.094 97.0276 192.094C97.6756 192.094 98.176 192.398 98.3728 192.874L97.9053 193.194L97.8315 193.186C97.692 192.874 97.4131 192.694 97.0358 192.694C96.6585 192.694 96.4453 192.882 96.4453 193.12C96.4453 193.334 96.5437 193.482 97.2655 193.761C98.176 194.106 98.463 194.426 98.463 194.976C98.463 195.592 97.9053 196.06 97.0522 196.06ZM101.397 190.526L101.323 190.559C101.183 190.493 101.044 190.469 100.937 190.469C100.593 190.469 100.453 190.657 100.453 191.331V192.25H101.331V192.866H100.453V195.904H99.7069V192.866H99.0179V192.25H99.7069V191.372C99.7069 190.189 100.051 189.787 100.855 189.787C101.027 189.787 101.249 189.82 101.438 189.886L101.397 190.526ZM105.332 194.204H102.469V194.245C102.469 194.976 102.961 195.428 103.609 195.428C104.061 195.428 104.38 195.222 104.659 194.787L104.725 194.771L105.283 195.083C104.922 195.715 104.331 196.06 103.585 196.06C102.445 196.06 101.682 195.247 101.682 194.081C101.682 192.891 102.453 192.094 103.544 192.094C104.618 192.094 105.34 192.825 105.34 194.065C105.34 194.114 105.34 194.139 105.332 194.204ZM103.552 192.71C102.994 192.71 102.584 193.063 102.486 193.679H104.569C104.528 193.071 104.134 192.71 103.552 192.71ZM107.097 195.904H106.35V192.25H107.031V192.964C107.343 192.349 107.728 192.094 108.212 192.094C108.573 192.094 108.86 192.291 109 192.718L108.376 193.079L108.302 193.063C108.212 192.85 108.097 192.776 107.909 192.776C107.507 192.776 107.097 193.301 107.097 194.204V195.904ZM112.703 195.387L112.769 195.419V195.945C112.572 196.011 112.44 196.035 112.219 196.035C111.842 196.035 111.628 195.838 111.596 195.51C111.21 195.896 110.849 196.06 110.382 196.06C109.725 196.06 109.315 195.666 109.315 195.075C109.315 194.401 109.939 193.933 111.546 193.712V193.49C111.546 192.973 111.333 192.743 110.931 192.743C110.521 192.743 110.177 192.964 109.906 193.359L109.84 193.367L109.348 193.038C109.693 192.464 110.316 192.094 110.997 192.094C111.817 192.094 112.293 192.538 112.293 193.359V195.231C112.293 195.395 112.342 195.444 112.473 195.444C112.547 195.444 112.596 195.428 112.703 195.387ZM110.07 195.025C110.07 195.321 110.25 195.485 110.595 195.485C110.956 195.485 111.276 195.329 111.546 195.066V194.204C110.464 194.385 110.07 194.623 110.07 195.025ZM114.354 195.904H113.608V189.886H114.354V195.904Z" fill="#1D1E25"/>
<path d="M123.486 196.002H124.463V193.07H123.486V196.002ZM123.974 192.093C124.112 192.093 124.229 192.046 124.323 191.952C124.416 191.858 124.463 191.743 124.463 191.604C124.463 191.466 124.416 191.35 124.322 191.256C124.228 191.162 124.112 191.115 123.974 191.116C123.836 191.116 123.72 191.163 123.626 191.256C123.532 191.35 123.485 191.466 123.486 191.604C123.486 191.743 123.533 191.859 123.627 191.952C123.72 192.046 123.836 192.093 123.974 192.093ZM123.974 198.446C123.299 198.446 122.664 198.318 122.07 198.061C121.476 197.804 120.96 197.456 120.52 197.016C120.081 196.577 119.733 196.059 119.477 195.465C119.22 194.87 119.092 194.235 119.092 193.559C119.092 192.883 119.22 192.247 119.477 191.653C119.733 191.058 120.081 190.541 120.52 190.101C120.96 189.661 121.476 189.313 122.07 189.057C122.664 188.8 123.299 188.672 123.974 188.672C124.649 188.672 125.284 188.8 125.878 189.057C126.472 189.313 126.989 189.662 127.428 190.101C127.868 190.541 128.216 191.058 128.472 191.653C128.729 192.247 128.857 192.883 128.857 193.559C128.857 194.235 128.728 194.87 128.472 195.465C128.215 196.059 127.868 196.577 127.428 197.016C126.989 197.456 126.472 197.805 125.878 198.061C125.284 198.318 124.649 198.446 123.974 198.446Z" fill="#489597"/>
<path d="M87.026 209.547C85.9515 209.547 85.2297 208.956 85.123 207.987L85.6644 207.897L85.8038 207.979C85.8941 208.595 86.3288 208.939 87.0424 208.939C87.8052 208.939 88.3056 208.389 88.3056 207.552C88.3056 206.756 87.7806 206.23 86.985 206.23C86.4682 206.23 86.0663 206.37 85.6726 206.673L85.4922 206.624L85.6808 203.578H88.568V204.202H86.2796L86.1729 205.885C86.4928 205.746 86.8537 205.672 87.2146 205.672C88.2645 205.672 88.9946 206.419 88.9946 207.494C88.9946 208.71 88.1989 209.547 87.026 209.547ZM96.8975 205.59C97.6932 205.59 98.1935 206.107 98.1935 207.035V209.391H97.5701V207.314C97.5701 206.526 97.2748 206.173 96.7089 206.173C96.0937 206.173 95.6508 206.788 95.6508 207.626V209.391H95.0274V207.314C95.0274 206.526 94.7321 206.173 94.1661 206.173C93.551 206.173 93.108 206.788 93.108 207.626V209.391H92.4847V205.746H93.108V206.394C93.4033 205.877 93.8216 205.59 94.3548 205.59C94.9864 205.59 95.3883 205.918 95.5441 206.517C95.8476 205.885 96.3726 205.59 96.8975 205.59ZM100.879 211.279C99.7062 211.279 98.9762 210.828 98.9762 210.089C98.9762 209.67 99.3043 209.342 99.8375 209.178C99.5996 209.054 99.493 208.89 99.493 208.693C99.493 208.398 99.6898 208.217 100.149 208.094C99.6078 207.913 99.2715 207.453 99.2715 206.903C99.2715 206.14 99.9441 205.59 100.863 205.59C101.142 205.59 101.404 205.647 101.626 205.746H102.766L102.782 206.214L102.708 206.279L102.216 206.23C102.356 206.435 102.438 206.673 102.438 206.944C102.438 207.618 101.954 208.086 101.133 208.184C100.379 208.274 100.125 208.381 100.125 208.578C100.125 208.742 100.338 208.816 101.043 208.907C102.241 209.063 102.758 209.407 102.758 210.064C102.758 210.82 102.044 211.279 100.879 211.279ZM100.855 207.691C101.445 207.691 101.814 207.388 101.814 206.911C101.814 206.427 101.437 206.123 100.855 206.123C100.272 206.123 99.8949 206.427 99.8949 206.911C99.8949 207.388 100.264 207.691 100.855 207.691ZM100.896 210.746C101.675 210.746 102.101 210.516 102.101 210.072C102.101 209.695 101.667 209.506 100.887 209.432C100.789 209.424 100.65 209.407 100.543 209.391C99.9523 209.506 99.6406 209.728 99.6406 210.056C99.6406 210.467 100.149 210.746 100.896 210.746Z" fill="#808D9E"/>
<path d="M60.6398 194.509C58.6461 192.513 55.4023 192.513 53.4086 194.509C52.443 195.476 51.9111 196.761 51.9111 198.128C51.9111 199.496 52.443 200.782 53.4086 201.749C54.4055 202.747 55.7149 203.246 57.0242 203.246C58.3336 203.246 59.6429 202.747 60.6398 201.749C62.6332 199.752 62.6332 196.505 60.6398 194.509Z" fill="#FFD039"/>
<path d="M60.6407 200.377C59.6437 201.394 58.3342 201.902 57.0248 201.902C55.7153 201.902 54.4058 201.394 53.4088 200.377C52.661 199.615 52.1734 198.657 51.9916 197.617C51.9385 197.92 51.9111 198.23 51.9111 198.544C51.9111 199.938 52.4431 201.247 53.4088 202.232C54.4058 203.249 55.7153 203.757 57.0248 203.757C58.3342 203.757 59.6437 203.249 60.6407 202.232C61.8694 200.979 62.3397 199.242 62.0539 197.617C61.8761 198.629 61.4057 199.597 60.6407 200.377Z" fill="#FFAE47"/>
<path d="M70.4825 188.273C69.3563 187.727 67.8613 187.412 66.2728 187.386C64.685 187.361 63.1804 187.626 62.0377 188.134C60.796 188.687 60.1047 189.475 60.091 190.354C60.0774 191.234 60.7439 192.044 61.9677 192.637C63.0938 193.182 64.5888 193.497 66.1773 193.523C66.2484 193.524 66.3193 193.525 66.39 193.525C67.8997 193.525 69.3209 193.26 70.4122 192.775C71.6541 192.222 72.3455 191.434 72.3591 190.555C72.3728 189.676 71.7063 188.866 70.4825 188.273Z" fill="#FF9522"/>
<path d="M70.4122 190.925C69.3209 191.415 67.8997 191.682 66.39 191.682C66.3193 191.682 66.2484 191.681 66.1773 191.68C64.5888 191.654 63.0938 191.336 61.9676 190.785C61.1968 190.408 60.6473 189.943 60.3494 189.43C60.1839 189.712 60.0959 190.011 60.091 190.322C60.0774 191.21 60.7439 192.028 61.9676 192.626C63.0938 193.177 64.5888 193.495 66.1773 193.521C66.2484 193.523 66.3193 193.523 66.39 193.523C67.8997 193.523 69.3209 193.256 70.4122 192.766C71.6541 192.208 72.3455 191.412 72.3591 190.525C72.3642 190.196 72.276 189.877 72.101 189.575C71.7937 190.098 71.2195 190.562 70.4122 190.925Z" fill="#DD7917"/>
<path d="M72.1343 207.85L77.0554 202.928C77.9817 202.002 78.492 200.77 78.4932 199.458C78.4938 198.148 77.9846 196.914 77.0595 195.987C76.1344 195.059 74.9041 194.547 73.5946 194.547C73.5934 194.547 73.5923 194.547 73.5911 194.547C72.283 194.547 71.0531 195.057 70.1274 195.982L65.2064 200.903C65.205 200.905 65.2036 200.907 65.2021 200.908L72.1343 207.85Z" fill="#E93234"/>
<path d="M65.4241 200.692C65.4256 200.69 65.4268 200.689 65.4284 200.688L60.5057 205.609C59.5791 206.536 59.0682 207.768 59.0674 209.079C59.0664 210.39 59.5757 211.624 60.5013 212.551C61.4267 213.479 62.6578 213.991 63.9675 213.992H63.9707C65.2792 213.992 66.5096 213.481 67.4357 212.556L72.3581 207.635L72.3583 207.634L65.4241 200.692Z" fill="#F9F1EF"/>
<path d="M78.4931 199.212C78.4937 197.863 77.9793 196.593 77.0448 195.639C76.8333 195.423 76.606 195.229 76.3664 195.059C76.9417 195.9 77.251 196.898 77.2504 197.945C77.2499 199.295 76.7337 200.564 75.7975 201.517L70.8252 206.583L72.0676 207.85L77.0401 202.784C77.9764 201.831 78.4925 200.562 78.4931 199.212Z" fill="#BF161C"/>
<path d="M72.3588 207.564L71.0927 206.318L66.0257 211.296C65.0725 212.233 63.8062 212.748 62.4594 212.748C62.4581 212.748 62.456 212.748 62.456 212.748C61.4124 212.748 60.4173 212.437 59.5791 211.861C59.7487 212.1 59.9404 212.327 60.154 212.537C61.1067 213.475 62.3736 213.993 63.7219 213.993H63.7253C65.0721 213.993 66.3387 213.478 67.2916 212.542L72.3588 207.564Z" fill="#CCCCCC"/>
<path d="M60.8518 194.807C60.7603 194.716 60.6652 194.63 60.5685 194.547L53.4443 201.679C53.5276 201.776 53.6148 201.87 53.7059 201.961C53.7976 202.053 53.8924 202.138 53.9891 202.222L61.1121 195.091C61.0291 194.994 60.9432 194.899 60.8518 194.807Z" fill="#FF9522"/>
<path d="M65.7712 187.387L65.7139 193.512C65.8629 193.517 66.0127 193.521 66.1635 193.523C66.2512 193.525 66.3384 193.525 66.4256 193.525C66.5105 193.525 66.5945 193.524 66.6789 193.523L66.7362 187.398C66.5854 187.393 66.4339 187.388 66.2814 187.386C66.1104 187.384 65.9403 187.385 65.7712 187.387Z" fill="#DD7917"/>
<path d="M52.7641 127.682L54.9577 132.045H54.9764L57.1512 127.682H58.3698V134.325H57.4699V128.874H57.4512L55.0421 133.603H54.8733L52.4548 128.874H52.436L52.4454 134.325H51.5361V127.682H52.7641ZM63.7359 132.383H60.4643V132.43C60.4643 133.265 61.0268 133.781 61.7674 133.781C62.283 133.781 62.6485 133.546 62.9672 133.049L63.0423 133.03L63.6797 133.387C63.2673 134.109 62.5923 134.503 61.7393 134.503C60.4363 134.503 59.5645 133.574 59.5645 132.242C59.5645 130.882 60.4456 129.971 61.6924 129.971C62.9204 129.971 63.7453 130.806 63.7453 132.223C63.7453 132.28 63.7453 132.308 63.7359 132.383ZM61.7017 130.675C61.0643 130.675 60.5956 131.079 60.4831 131.782H62.8642C62.8173 131.088 62.3673 130.675 61.7017 130.675ZM66.5122 134.503C65.3498 134.503 64.5717 133.621 64.5717 132.233C64.5717 130.9 65.4341 129.971 66.5309 129.971C67.1495 129.971 67.7214 130.29 68.0683 130.872C68.0589 130.44 68.0589 129.971 68.0589 129.512V127.447H68.9119V134.325H68.0964V133.612C67.7777 134.166 67.1496 134.503 66.5122 134.503ZM66.709 133.734C67.5527 133.734 68.087 133.133 68.087 132.242C68.087 131.369 67.5245 130.741 66.7465 130.741C65.9684 130.741 65.4528 131.323 65.4528 132.233C65.4528 133.18 65.931 133.734 66.709 133.734ZM71.6305 134.503C70.8618 134.503 70.2618 134.175 69.9243 133.574L70.5337 133.162L70.5806 133.171C70.8149 133.584 71.1712 133.818 71.6211 133.818C72.0992 133.818 72.3897 133.603 72.3897 133.274C72.3897 133.011 72.2491 132.814 71.4617 132.533C70.3649 132.139 70.0931 131.735 70.0931 131.163C70.0931 130.516 70.6555 129.971 71.6023 129.971C72.3429 129.971 72.9147 130.319 73.1397 130.863L72.6054 131.229L72.521 131.219C72.3616 130.863 72.043 130.656 71.6117 130.656C71.1805 130.656 70.9368 130.872 70.9368 131.144C70.9368 131.388 71.0493 131.557 71.8742 131.876C72.9147 132.27 73.2428 132.636 73.2428 133.265C73.2428 133.969 72.6054 134.503 71.6305 134.503ZM80.6648 133.734L80.7398 133.772V134.372C80.5148 134.447 80.3648 134.475 80.1117 134.475C79.6805 134.475 79.4368 134.25 79.3993 133.875C78.9587 134.316 78.5462 134.503 78.0119 134.503C77.262 134.503 76.7933 134.053 76.7933 133.377C76.7933 132.608 77.5057 132.073 79.343 131.82V131.566C79.343 130.975 79.0993 130.713 78.64 130.713C78.1713 130.713 77.7776 130.966 77.4682 131.416L77.3932 131.426L76.8308 131.05C77.2245 130.394 77.9369 129.971 78.715 129.971C79.6524 129.971 80.1961 130.478 80.1961 131.416V133.556C80.1961 133.743 80.2523 133.8 80.4023 133.8C80.4867 133.8 80.5429 133.781 80.6648 133.734ZM77.6557 133.321C77.6557 133.659 77.8619 133.847 78.2557 133.847C78.6681 133.847 79.0337 133.668 79.343 133.368V132.383C78.1057 132.589 77.6557 132.861 77.6557 133.321ZM83.9006 133.603L83.985 133.64L84.0131 134.363C83.7788 134.457 83.4975 134.503 83.2069 134.503C82.3914 134.503 81.9227 134.044 81.9227 133.218V130.853H81.1353V130.15H81.9321V128.883L82.6445 128.461H82.7757V130.15H84.0037V130.853H82.7757V132.974C82.7757 133.546 82.9351 133.734 83.3944 133.734C83.5632 133.734 83.7225 133.687 83.9006 133.603ZM88.7793 134.325H87.87V127.682H88.5543L91.3759 130.938C91.7977 131.426 92.2102 131.914 92.6414 132.439H92.6695C92.6602 131.914 92.6508 131.426 92.6508 130.75V127.682H93.5601V134.447H93.2038L90.0729 130.853C89.6511 130.375 89.2292 129.878 88.7886 129.361H88.7605C88.7793 129.878 88.7793 130.375 88.7793 131.041V134.325ZM97.0595 134.503C95.7472 134.503 94.7535 133.509 94.7535 132.233C94.7535 130.957 95.7378 129.971 97.0595 129.971C98.3813 129.971 99.3656 130.957 99.3656 132.233C99.3656 133.509 98.3719 134.503 97.0595 134.503ZM97.0595 133.734C97.8657 133.734 98.4844 133.077 98.4844 132.233C98.4844 131.398 97.8751 130.741 97.0595 130.741C96.244 130.741 95.6347 131.398 95.6347 132.233C95.6347 133.077 96.2534 133.734 97.0595 133.734ZM102.461 134.503C101.148 134.503 100.155 133.509 100.155 132.233C100.155 130.957 101.139 129.971 102.461 129.971C103.783 129.971 104.767 130.957 104.767 132.233C104.767 133.509 103.773 134.503 102.461 134.503ZM102.461 133.734C103.267 133.734 103.886 133.077 103.886 132.233C103.886 131.398 103.276 130.741 102.461 130.741C101.645 130.741 101.036 131.398 101.036 132.233C101.036 133.077 101.655 133.734 102.461 133.734ZM105.884 134.325V130.15H106.737V130.872C107.084 130.29 107.618 129.971 108.237 129.971C109.231 129.971 109.802 130.562 109.802 131.623V134.325H108.949V131.961C108.949 131.107 108.64 130.741 107.965 130.741C107.234 130.741 106.737 131.351 106.737 132.251V134.325H105.884Z" fill="#1D1E25"/>
<path d="M40.1934 174.498H236.464" stroke="#E9ECF2"/>
<mask id="mask4_1673_23603" style="mask-type:luminance" maskUnits="userSpaceOnUse" x="51" y="155" width="10" height="10">
<path d="M60.6993 155.439H51.3252V164.823H60.6993V155.439Z" fill="white"/>
</mask>
<g mask="url(#mask4_1673_23603)">
<path d="M56.0123 164.04C58.1695 164.04 59.9182 162.29 59.9182 160.131C59.9182 157.971 58.1695 156.221 56.0123 156.221C53.8552 156.221 52.1064 157.971 52.1064 160.131C52.1064 162.29 53.8552 164.04 56.0123 164.04Z" stroke="#1D1E25" stroke-width="1.5" stroke-linecap="round" stroke-linejoin="round"/>
<path d="M55.4258 158.371V160.717L56.9882 161.499" stroke="#1D1E25" stroke-width="1.5" stroke-linecap="round" stroke-linejoin="round"/>
</g>
<path d="M67.2422 162.476H66.5462V158.872C66.5462 158.696 66.5532 158.492 66.5743 158.316L66.5532 158.309C66.4337 158.394 66.3072 158.471 66.1736 158.549L65.576 158.886L65.5127 158.865L65.576 158.148L67.0735 157.395H67.2422V162.476ZM71.2314 162.476H67.9973V162.342L69.1855 161.096C70.1135 160.153 70.5775 159.435 70.5775 158.809C70.5775 158.302 70.2682 157.979 69.7409 157.979C69.1784 157.979 68.841 158.316 68.7285 158.908L68.6019 158.971L68.0535 158.886C68.2012 157.866 68.841 157.359 69.7901 157.359C70.676 157.359 71.2876 157.915 71.2876 158.753C71.2876 159.492 70.8869 160.224 70.0854 161.061L69.6706 161.49C69.5511 161.617 69.4456 161.716 69.2839 161.863L69.2909 161.877C69.537 161.856 69.6987 161.856 69.994 161.856H71.2314V162.476ZM72.7385 160.252C72.4854 160.252 72.2885 160.048 72.2885 159.801C72.2885 159.555 72.4854 159.351 72.7385 159.351C72.9916 159.351 73.1955 159.555 73.1955 159.801C73.1955 160.048 72.9916 160.252 72.7385 160.252ZM72.7385 162.546C72.4854 162.546 72.2885 162.342 72.2885 162.096C72.2885 161.849 72.4854 161.645 72.7385 161.645C72.9916 161.645 73.1955 161.849 73.1955 162.096C73.1955 162.342 72.9916 162.546 72.7385 162.546ZM75.7283 162.476H75.0322V158.872C75.0322 158.696 75.0393 158.492 75.0604 158.316L75.0393 158.309C74.9197 158.394 74.7932 158.471 74.6596 158.549L74.062 158.886L73.9987 158.865L74.062 158.148L75.5595 157.395H75.7283V162.476ZM78.3255 162.609C77.3623 162.609 76.7366 162.103 76.6381 161.251L77.2146 161.153L77.3342 161.223C77.4115 161.723 77.756 162.004 78.3325 162.004C78.9442 162.004 79.3449 161.561 79.3449 160.885C79.3449 160.238 78.916 159.815 78.2622 159.815C77.8193 159.815 77.4607 159.935 77.1232 160.195L76.9475 160.146L77.1162 157.493H79.6753V158.112H77.7208L77.6365 159.442C77.9107 159.33 78.206 159.274 78.5012 159.274C79.4152 159.274 80.0409 159.914 80.0409 160.843C80.0409 161.891 79.3519 162.609 78.3255 162.609ZM83.7138 162.476H83.0178V157.493H84.4661C85.5769 157.493 86.1605 158.007 86.1605 158.964C86.1605 159.879 85.5488 160.414 84.4802 160.414H83.7138V162.476ZM83.7138 158.091V159.815H84.3325C85.12 159.815 85.4715 159.555 85.4715 158.964C85.4715 158.345 85.1129 158.091 84.3325 158.091H83.7138ZM87.9211 157.493L89.5662 160.765H89.5803L91.2114 157.493H92.1254V162.476H91.4504V158.387H91.4363L89.6295 161.934H89.5029L87.689 158.387H87.675L87.682 162.476H87V157.493H87.9211Z" fill="#1D1E25"/>
<path opacity="0.5" d="M98.7811 161.303C99.4285 161.303 99.9529 160.778 99.9529 160.13C99.9529 159.482 99.4285 158.957 98.7811 158.957C98.1337 158.957 97.6094 159.482 97.6094 160.13C97.6094 160.778 98.1337 161.303 98.7811 161.303Z" fill="#1D1E25"/>
<path d="M106.159 157.492L107.804 160.765H107.819L109.45 157.492H110.364V162.475H109.689V158.386H109.675L107.868 161.933H107.741L105.927 158.386H105.913L105.92 162.475H105.238V157.492H106.159ZM112.982 162.609C111.998 162.609 111.252 161.863 111.252 160.905C111.252 159.948 111.991 159.209 112.982 159.209C113.973 159.209 114.711 159.948 114.711 160.905C114.711 161.863 113.966 162.609 112.982 162.609ZM112.982 162.031C113.587 162.031 114.051 161.539 114.051 160.905C114.051 160.279 113.594 159.787 112.982 159.787C112.37 159.787 111.913 160.279 111.913 160.905C111.913 161.539 112.377 162.031 112.982 162.031ZM115.549 162.475V159.343H116.189V159.885C116.449 159.449 116.85 159.209 117.314 159.209C118.059 159.209 118.488 159.653 118.488 160.448V162.475H117.848V160.701C117.848 160.061 117.616 159.787 117.11 159.787C116.562 159.787 116.189 160.244 116.189 160.92V162.475H115.549ZM120.627 161.792L119.748 163.636L119.291 163.453L119.952 161.581L120.022 161.553L120.627 161.792ZM125.26 162.566H124.796L123.235 157.492H123.981L124.74 160.131C124.845 160.49 124.958 160.87 125.063 161.257H125.091C125.225 160.877 125.352 160.504 125.478 160.124L126.378 157.535H126.638L127.531 160.124C127.658 160.504 127.791 160.877 127.925 161.257H127.946C128.051 160.87 128.164 160.49 128.269 160.131L129.029 157.492H129.774L128.22 162.566H127.749L126.856 159.977C126.744 159.667 126.631 159.35 126.519 159.019H126.491C126.385 159.35 126.28 159.66 126.167 159.97L125.26 162.566ZM132.994 161.018H130.541V161.053C130.541 161.68 130.963 162.067 131.518 162.067C131.905 162.067 132.179 161.891 132.418 161.518L132.474 161.504L132.952 161.771C132.643 162.313 132.137 162.609 131.497 162.609C130.52 162.609 129.866 161.912 129.866 160.913C129.866 159.892 130.527 159.209 131.462 159.209C132.383 159.209 133.001 159.836 133.001 160.898C133.001 160.941 133.001 160.962 132.994 161.018ZM131.469 159.737C130.991 159.737 130.639 160.04 130.555 160.568H132.341C132.305 160.047 131.968 159.737 131.469 159.737ZM135.077 162.609C134.205 162.609 133.621 161.947 133.621 160.905C133.621 159.906 134.268 159.209 135.091 159.209C135.555 159.209 135.984 159.449 136.244 159.885C136.237 159.561 136.237 159.209 136.237 158.865V157.316H136.877V162.475H136.265V161.94C136.026 162.355 135.555 162.609 135.077 162.609ZM135.224 162.031C135.857 162.031 136.258 161.581 136.258 160.913C136.258 160.258 135.836 159.787 135.252 159.787C134.669 159.787 134.282 160.223 134.282 160.905C134.282 161.616 134.641 162.031 135.224 162.031ZM139.014 161.792L138.135 163.636L137.678 163.453L138.339 161.581L138.409 161.553L139.014 161.792ZM142.121 162.475V157.492H144.92L144.99 158.112H142.81V159.632H144.835V160.244H142.81V162.475H142.121ZM146.467 162.475H145.828V159.343H146.411V159.955C146.678 159.428 147.009 159.209 147.424 159.209C147.733 159.209 147.979 159.378 148.099 159.744L147.564 160.054L147.501 160.04C147.424 159.857 147.325 159.794 147.163 159.794C146.819 159.794 146.467 160.244 146.467 161.018V162.475ZM149.021 158.323C148.775 158.323 148.578 158.14 148.578 157.893C148.578 157.647 148.768 157.457 149.021 157.457C149.267 157.457 149.464 157.654 149.464 157.901C149.464 158.14 149.267 158.323 149.021 158.323ZM149.337 162.475H148.697V159.343H149.337V162.475Z" fill="#1D1E25"/>
<path opacity="0.6" d="M53.9682 147.287L55.543 149.462L55.4938 149.574H54.9032L53.3495 147.372H52.5269V149.574H51.9434V144.592H53.3776C54.4181 144.592 55.0087 145.049 55.0087 145.999C55.0087 146.654 54.6431 147.118 53.9682 147.287ZM53.23 145.113H52.5269V146.851H53.23C54.0525 146.851 54.4181 146.619 54.4181 145.999C54.4181 145.345 54.0455 145.113 53.23 145.113ZM58.9423 148.111H56.4605V148.139C56.4605 148.814 56.9174 149.223 57.508 149.223C57.9158 149.223 58.204 149.04 58.4642 148.638L58.5204 148.624L58.9071 148.885C58.5907 149.42 58.0986 149.708 57.4869 149.708C56.5378 149.708 55.891 149.018 55.891 148.019C55.891 146.992 56.5378 146.316 57.4518 146.316C58.3517 146.316 58.9493 146.928 58.9493 147.991C58.9493 148.033 58.9493 148.054 58.9423 148.111ZM57.4518 146.795C56.9385 146.795 56.5659 147.118 56.4815 147.674H58.3798C58.3447 147.125 57.9861 146.795 57.4518 146.795ZM63.641 146.316C64.3229 146.316 64.7518 146.759 64.7518 147.555V149.574H64.2175V147.794C64.2175 147.118 63.9644 146.816 63.4793 146.816C62.952 146.816 62.5723 147.344 62.5723 148.061V149.574H62.038V147.794C62.038 147.118 61.7849 146.816 61.2998 146.816C60.7725 146.816 60.3928 147.344 60.3928 148.061V149.574H59.8585V146.45H60.3928V147.006C60.6459 146.562 61.0045 146.316 61.4615 146.316C62.0028 146.316 62.3473 146.598 62.4809 147.111C62.7411 146.569 63.191 146.316 63.641 146.316ZM66.1607 145.359C65.9427 145.359 65.767 145.19 65.767 144.965C65.767 144.747 65.9427 144.571 66.1607 144.571C66.3786 144.571 66.5544 144.754 66.5544 144.972C66.5544 145.19 66.3786 145.359 66.1607 145.359ZM66.4278 149.574H65.8935V146.45H66.4278V149.574ZM67.5688 149.574V146.45H68.1031V147.006C68.3632 146.562 68.771 146.316 69.2421 146.316C69.9943 146.316 70.4232 146.759 70.4232 147.555V149.574H69.8889V147.787C69.8889 147.111 69.6358 146.816 69.0944 146.816C68.4968 146.816 68.1031 147.308 68.1031 148.012V149.574H67.5688ZM72.781 149.708C71.8951 149.708 71.3045 149.047 71.3045 148.012C71.3045 147.02 71.9584 146.316 72.788 146.316C73.2591 146.316 73.695 146.562 73.9551 147.006V145.985V144.416H74.4895V149.574H73.9762V149.033C73.7372 149.448 73.2661 149.708 72.781 149.708ZM72.8724 149.208C73.5473 149.208 73.9762 148.73 73.9762 148.019C73.9762 147.322 73.5192 146.816 72.9005 146.816C72.2748 146.816 71.867 147.28 71.867 148.012C71.867 148.765 72.2466 149.208 72.8724 149.208ZM78.4272 148.111H75.9454V148.139C75.9454 148.814 76.4024 149.223 76.9929 149.223C77.4007 149.223 77.689 149.04 77.9491 148.638L78.0053 148.624L78.392 148.885C78.0756 149.42 77.5835 149.708 76.9718 149.708C76.0227 149.708 75.3759 149.018 75.3759 148.019C75.3759 146.992 76.0227 146.316 76.9367 146.316C77.8366 146.316 78.4342 146.928 78.4342 147.991C78.4342 148.033 78.4342 148.054 78.4272 148.111ZM76.9367 146.795C76.4235 146.795 76.0508 147.118 75.9665 147.674H77.8647C77.8296 147.125 77.471 146.795 76.9367 146.795ZM79.8778 149.574H79.3435V146.45H79.8216V147.083C80.0887 146.541 80.4121 146.316 80.841 146.316C81.1293 146.316 81.3683 146.485 81.4878 146.816L81.0308 147.083L80.9746 147.069C80.8902 146.879 80.7848 146.816 80.616 146.816C80.2504 146.816 79.8778 147.294 79.8778 148.111V149.574ZM85.7513 149.11L85.8075 149.138L85.8286 149.61C85.6529 149.673 85.463 149.708 85.2521 149.708C84.6897 149.708 84.3522 149.377 84.3522 148.779V146.907H83.7546V146.45H84.3522V145.465L84.8162 145.183H84.8865V146.45H85.8216V146.907H84.8865V148.617C84.8865 149.061 85.0061 149.208 85.3576 149.208C85.4841 149.208 85.6107 149.173 85.7513 149.11ZM86.8955 145.359C86.6776 145.359 86.5018 145.19 86.5018 144.965C86.5018 144.747 86.6776 144.571 86.8955 144.571C87.1135 144.571 87.2892 144.754 87.2892 144.972C87.2892 145.19 87.1135 145.359 86.8955 145.359ZM87.1627 149.574H86.6284V146.45H87.1627V149.574ZM92.0864 146.316C92.7684 146.316 93.1973 146.759 93.1973 147.555V149.574H92.663V147.794C92.663 147.118 92.4098 146.816 91.9247 146.816C91.3974 146.816 91.0178 147.344 91.0178 148.061V149.574H90.4835V147.794C90.4835 147.118 90.2304 146.816 89.7453 146.816C89.218 146.816 88.8383 147.344 88.8383 148.061V149.574H88.304V146.45H88.8383V147.006C89.0914 146.562 89.45 146.316 89.907 146.316C90.4483 146.316 90.7928 146.598 90.9264 147.111C91.1865 146.569 91.6365 146.316 92.0864 146.316ZM97.1367 148.111H94.6549V148.139C94.6549 148.814 95.1119 149.223 95.7025 149.223C96.1103 149.223 96.3985 149.04 96.6587 148.638L96.7149 148.624L97.1016 148.885C96.7852 149.42 96.2931 149.708 95.6814 149.708C94.7323 149.708 94.0855 149.018 94.0855 148.019C94.0855 146.992 94.7323 146.316 95.6463 146.316C96.5462 146.316 97.1438 146.928 97.1438 147.991C97.1438 148.033 97.1438 148.054 97.1367 148.111ZM95.6463 146.795C95.133 146.795 94.7604 147.118 94.676 147.674H96.5743C96.5391 147.125 96.1806 146.795 95.6463 146.795ZM103.36 148.603L104.323 149.574H103.592L103.051 149.026C102.643 149.483 102.123 149.708 101.525 149.708C100.618 149.708 99.9783 149.117 99.9712 148.28C99.9642 147.702 100.281 147.245 100.941 146.886C100.506 146.443 100.33 146.014 100.33 145.619C100.33 144.923 100.815 144.458 101.56 144.458C102.277 144.458 102.798 144.916 102.798 145.542C102.798 146.147 102.467 146.626 101.771 146.985L102.987 148.223C103.177 147.871 103.318 147.428 103.388 146.921L103.444 146.879H103.965C103.831 147.59 103.627 148.16 103.36 148.603ZM101.567 144.916C101.131 144.916 100.864 145.197 100.864 145.591C100.864 145.95 101.173 146.372 101.42 146.633C102.059 146.274 102.263 145.957 102.263 145.556C102.263 145.197 101.982 144.916 101.567 144.916ZM101.532 149.208C101.975 149.208 102.376 149.011 102.685 148.66L101.286 147.238C100.752 147.527 100.527 147.85 100.534 148.287C100.541 148.835 100.949 149.208 101.532 149.208ZM108.147 149.708C107.261 149.708 106.671 149.047 106.671 148.012C106.671 147.02 107.325 146.316 108.154 146.316C108.625 146.316 109.061 146.562 109.321 147.006V145.985V144.416H109.856V149.574H109.342V149.033C109.103 149.448 108.632 149.708 108.147 149.708ZM108.239 149.208C108.914 149.208 109.342 148.73 109.342 148.019C109.342 147.322 108.885 146.816 108.267 146.816C107.641 146.816 107.233 147.28 107.233 148.012C107.233 148.765 107.613 149.208 108.239 149.208ZM113.575 149.173L113.632 149.201V149.617C113.463 149.666 113.372 149.687 113.189 149.687C112.9 149.687 112.718 149.525 112.697 149.23C112.359 149.567 112.057 149.708 111.67 149.708C111.115 149.708 110.756 149.363 110.756 148.85C110.756 148.273 111.305 147.864 112.676 147.681V147.484C112.676 147.013 112.479 146.802 112.113 146.802C111.747 146.802 111.438 147.006 111.206 147.351L111.15 147.358L110.777 147.111C111.066 146.626 111.586 146.316 112.148 146.316C112.809 146.316 113.21 146.689 113.21 147.365V149.04C113.21 149.18 113.252 149.223 113.372 149.223C113.435 149.223 113.484 149.208 113.575 149.173ZM111.797 149.251C112.141 149.251 112.444 149.103 112.676 148.864V148.09C111.684 148.251 111.319 148.47 111.319 148.835C111.319 149.096 111.48 149.251 111.797 149.251ZM114.893 151.109H114.288L115.181 149.265L113.916 146.45H114.527L115.456 148.688H115.47L116.433 146.45H117.037L114.893 151.109ZM118.562 149.708C117.999 149.708 117.557 149.469 117.31 149.026L117.732 148.737L117.767 148.744C117.943 149.061 118.217 149.244 118.576 149.244C118.956 149.244 119.195 149.068 119.195 148.807C119.195 148.596 119.089 148.434 118.478 148.216C117.634 147.914 117.43 147.618 117.43 147.196C117.43 146.724 117.838 146.316 118.534 146.316C119.075 146.316 119.483 146.576 119.652 146.978L119.286 147.231L119.23 147.224C119.103 146.942 118.857 146.781 118.513 146.781C118.168 146.781 117.971 146.957 117.971 147.175C117.971 147.372 118.056 147.512 118.695 147.752C119.497 148.054 119.736 148.322 119.736 148.793C119.736 149.307 119.272 149.708 118.562 149.708Z" fill="#1D1E25"/>
<path d="M210.504 133.741V127.928H213.891L213.974 128.65H211.308V130.407H213.768V131.122H211.308V133.018H213.974L213.891 133.741H210.504ZM216.519 133.897C215.502 133.897 214.821 133.125 214.821 131.91C214.821 130.744 215.576 129.931 216.536 129.931C217.077 129.931 217.577 130.21 217.881 130.719C217.873 130.342 217.873 129.931 217.873 129.529V127.723H218.619V133.741H217.905V133.117C217.626 133.601 217.077 133.897 216.519 133.897ZM216.691 133.224C217.43 133.224 217.897 132.698 217.897 131.918C217.897 131.155 217.405 130.604 216.724 130.604C216.043 130.604 215.592 131.114 215.592 131.91C215.592 132.739 216.011 133.224 216.691 133.224ZM220.268 128.897C219.981 128.897 219.751 128.683 219.751 128.396C219.751 128.109 219.972 127.887 220.268 127.887C220.555 127.887 220.784 128.117 220.784 128.404C220.784 128.683 220.555 128.897 220.268 128.897ZM220.637 133.741H219.89V130.087H220.637V133.741ZM223.812 133.109L223.885 133.141L223.91 133.774C223.705 133.856 223.459 133.897 223.205 133.897C222.491 133.897 222.081 133.494 222.081 132.772V130.703H221.392V130.087H222.089V128.979L222.713 128.609H222.827V130.087H223.902V130.703H222.827V132.559C222.827 133.059 222.967 133.224 223.369 133.224C223.516 133.224 223.656 133.182 223.812 133.109Z" fill="#449598"/>
<g filter="url(#filter7_d_1673_23603)">
<path d="M40.1934 245.166C40.1934 241.28 43.3411 238.129 47.2239 238.129H229.433C233.316 238.129 236.464 241.28 236.464 245.166V339.585C236.464 343.471 233.316 346.622 229.433 346.622H47.2239C43.3411 346.622 40.1934 343.471 40.1934 339.585V245.166Z" fill="white"/>
</g>
<path d="M51.5361 253.962V247.319H55.4076L55.5013 248.144H52.4548V250.152H55.267V250.969H52.4548V253.136H55.5013L55.4076 253.962H51.5361ZM58.4194 254.093H58.1288L56.1603 249.786H57.0977L58.2694 252.62H58.2882L59.46 249.786H60.3786L58.4194 254.093ZM64.9992 252.02H61.7277V252.066C61.7277 252.902 62.2902 253.418 63.0307 253.418C63.5463 253.418 63.9119 253.183 64.2306 252.686L64.3056 252.667L64.9431 253.024C64.5306 253.746 63.8557 254.14 63.0026 254.14C61.6996 254.14 60.8278 253.211 60.8278 251.879C60.8278 250.518 61.709 249.608 62.9557 249.608C64.1838 249.608 65.0087 250.443 65.0087 251.86C65.0087 251.916 65.0086 251.944 64.9992 252.02ZM62.9651 250.312C62.3276 250.312 61.859 250.715 61.7465 251.419H64.1275C64.0806 250.725 63.6306 250.312 62.9651 250.312ZM66.1632 253.962V249.786H67.0162V250.509C67.363 249.927 67.8973 249.608 68.516 249.608C69.5097 249.608 70.0815 250.199 70.0815 251.259V253.962H69.2285V251.597C69.2285 250.743 68.9191 250.377 68.2442 250.377C67.513 250.377 67.0162 250.987 67.0162 251.888V253.962H66.1632ZM71.9679 248.426C71.6398 248.426 71.3774 248.182 71.3774 247.853C71.3774 247.525 71.6304 247.272 71.9679 247.272C72.296 247.272 72.5585 247.534 72.5585 247.863C72.5585 248.182 72.296 248.426 71.9679 248.426ZM72.3897 253.962H71.5367V249.786H72.3897V253.962ZM73.8434 253.962V249.786H74.6964V250.509C75.0433 249.927 75.5776 249.608 76.1963 249.608C77.1899 249.608 77.7618 250.199 77.7618 251.259V253.962H76.9087V251.597C76.9087 250.743 76.5994 250.377 75.9244 250.377C75.1932 250.377 74.6964 250.987 74.6964 251.888V253.962H73.8434ZM80.8013 256.12C79.4327 256.12 78.5984 255.613 78.5984 254.759C78.5984 254.29 78.964 253.915 79.5639 253.727C79.3108 253.587 79.189 253.399 79.189 253.174C79.189 252.836 79.4139 252.62 79.9295 252.489C79.3202 252.282 78.9359 251.747 78.9359 251.119C78.9359 250.237 79.7139 249.608 80.7826 249.608C81.1107 249.608 81.4106 249.674 81.6637 249.786H82.9855L83.0042 250.406L82.9199 250.481L82.3855 250.424C82.5261 250.64 82.6105 250.884 82.6105 251.166C82.6105 251.944 82.0481 252.489 81.0919 252.592C80.2764 252.686 80.0045 252.798 80.0045 253.014C80.0045 253.192 80.2482 253.267 81.0263 253.371C82.3949 253.549 82.9761 253.952 82.9761 254.722C82.9761 255.595 82.1606 256.12 80.8013 256.12ZM80.7732 251.973C81.4106 251.973 81.8043 251.635 81.8043 251.128C81.8043 250.603 81.4013 250.274 80.7732 250.274C80.1545 250.274 79.7514 250.603 79.7514 251.128C79.7514 251.635 80.1451 251.973 80.7732 251.973ZM80.8201 255.444C81.6731 255.444 82.1231 255.2 82.1231 254.731C82.1231 254.337 81.6637 254.131 80.8294 254.046C80.6888 254.037 80.5388 254.018 80.417 253.999C79.7983 254.121 79.4608 254.365 79.4608 254.713C79.4608 255.154 80.0045 255.444 80.8201 255.444ZM87.9995 247.319L90.193 251.682H90.2118L92.3866 247.319H93.6052V253.962H92.7053V248.51H92.6865L90.2774 253.239H90.1086L87.6901 248.51H87.6714L87.6807 253.962H86.7715V247.319H87.9995ZM98.9713 252.02H95.6997V252.066C95.6997 252.902 96.2622 253.418 97.0027 253.418C97.5183 253.418 97.8839 253.183 98.2026 252.686L98.2776 252.667L98.915 253.024C98.5026 253.746 97.8276 254.14 96.9746 254.14C95.6716 254.14 94.7998 253.211 94.7998 251.879C94.7998 250.518 95.681 249.608 96.9277 249.608C98.1557 249.608 98.9807 250.443 98.9807 251.86C98.9807 251.916 98.9807 251.944 98.9713 252.02ZM96.9371 250.312C96.2997 250.312 95.831 250.715 95.7185 251.419H98.0995C98.0526 250.725 97.6027 250.312 96.9371 250.312ZM101.747 254.14C100.585 254.14 99.8067 253.258 99.8067 251.869C99.8067 250.537 100.669 249.608 101.766 249.608C102.385 249.608 102.956 249.927 103.303 250.509C103.294 250.077 103.294 249.608 103.294 249.148V247.084H104.147V253.962H103.331V253.249C103.013 253.802 102.385 254.14 101.747 254.14ZM101.944 253.371C102.788 253.371 103.322 252.77 103.322 251.879C103.322 251.006 102.76 250.377 101.982 250.377C101.203 250.377 100.688 250.959 100.688 251.869C100.688 252.817 101.166 253.371 101.944 253.371ZM106.865 254.14C106.097 254.14 105.497 253.812 105.159 253.211L105.769 252.798L105.816 252.808C106.05 253.221 106.406 253.455 106.856 253.455C107.334 253.455 107.625 253.239 107.625 252.911C107.625 252.648 107.484 252.451 106.697 252.17C105.6 251.776 105.328 251.372 105.328 250.8C105.328 250.152 105.891 249.608 106.837 249.608C107.578 249.608 108.15 249.955 108.375 250.499L107.84 250.865L107.756 250.856C107.597 250.499 107.278 250.293 106.847 250.293C106.416 250.293 106.172 250.509 106.172 250.781C106.172 251.025 106.284 251.194 107.109 251.513C108.15 251.907 108.478 252.273 108.478 252.902C108.478 253.605 107.84 254.14 106.865 254.14Z" fill="#1D1E25"/>
<path d="M40.1934 294.133H236.464" stroke="#E9ECF2"/>
<mask id="mask5_1673_23603" style="mask-type:luminance" maskUnits="userSpaceOnUse" x="51" y="275" width="10" height="10">
<path d="M60.6993 275.074H51.3252V284.457H60.6993V275.074Z" fill="white"/>
</mask>
<g mask="url(#mask5_1673_23603)">
<path d="M56.0123 283.675C58.1695 283.675 59.9182 281.925 59.9182 279.765C59.9182 277.606 58.1695 275.855 56.0123 275.855C53.8552 275.855 52.1064 277.606 52.1064 279.765C52.1064 281.925 53.8552 283.675 56.0123 283.675Z" stroke="#1D1E25" stroke-width="1.5" stroke-linecap="round" stroke-linejoin="round"/>
<path d="M55.4258 278.006V280.352L56.9882 281.133" stroke="#1D1E25" stroke-width="1.5" stroke-linecap="round" stroke-linejoin="round"/>
</g>
<path d="M65.7379 282.033L67.7767 277.754H65.4355V277.128H68.7329V277.255L66.3636 282.223L66.23 282.244L65.7379 282.033ZM69.4225 279.887C69.1694 279.887 68.9725 279.682 68.9725 279.436C68.9725 279.19 69.1694 278.986 69.4225 278.986C69.6756 278.986 69.8795 279.19 69.8795 279.436C69.8795 279.682 69.6756 279.887 69.4225 279.887ZM69.4225 282.181C69.1694 282.181 68.9725 281.977 68.9725 281.73C68.9725 281.484 69.1694 281.28 69.4225 281.28C69.6756 281.28 69.8795 281.484 69.8795 281.73C69.8795 281.977 69.6756 282.181 69.4225 282.181ZM72.785 282.244C71.6671 282.244 70.9922 281.252 70.9922 279.612C70.9922 277.979 71.6671 276.994 72.785 276.994C73.8957 276.994 74.5706 277.979 74.5706 279.612C74.5706 281.252 73.8957 282.244 72.785 282.244ZM72.785 281.611C73.4599 281.611 73.8605 280.865 73.8605 279.605C73.8605 278.359 73.4599 277.628 72.785 277.628C72.103 277.628 71.7023 278.359 71.7023 279.605C71.7023 280.865 72.103 281.611 72.785 281.611ZM77.234 282.244C76.1162 282.244 75.4412 281.252 75.4412 279.612C75.4412 277.979 76.1162 276.994 77.234 276.994C78.3449 276.994 79.0198 277.979 79.0198 279.612C79.0198 281.252 78.3449 282.244 77.234 282.244ZM77.234 281.611C77.909 281.611 78.3097 280.865 78.3097 279.605C78.3097 278.359 77.909 277.628 77.234 277.628C76.5521 277.628 76.1513 278.359 76.1513 279.605C76.1513 280.865 76.5521 281.611 77.234 281.611ZM82.828 282.11H82.132V277.128H83.5803C84.6912 277.128 85.2747 277.642 85.2747 278.599C85.2747 279.514 84.663 280.048 83.5944 280.048H82.828V282.11ZM82.828 277.726V279.45H83.4467C84.2342 279.45 84.5857 279.19 84.5857 278.599C84.5857 277.979 84.2271 277.726 83.4467 277.726H82.828ZM87.0353 277.128L88.6804 280.4H88.6945L90.3256 277.128H91.2396V282.11H90.5646V278.022H90.5506L88.7437 281.568H88.6172L86.8033 278.022H86.7892L86.7962 282.11H86.1143V277.128H87.0353Z" fill="#1D1E25"/>
<path opacity="0.5" d="M98.1962 280.94C98.8436 280.94 99.3679 280.415 99.3679 279.767C99.3679 279.119 98.8436 278.594 98.1962 278.594C97.5488 278.594 97.0244 279.119 97.0244 279.767C97.0244 280.415 97.5488 280.94 98.1962 280.94Z" fill="#1D1E25"/>
<path d="M106.115 282.244C105.334 282.244 104.779 281.941 104.371 281.202L104.863 280.865L104.983 280.893C105.278 281.428 105.616 281.646 106.108 281.646C106.642 281.646 107.015 281.28 107.015 280.844C107.015 280.421 106.804 280.14 105.911 279.774C104.891 279.345 104.54 278.908 104.54 278.254C104.54 277.55 105.116 276.994 106.065 276.994C106.769 276.994 107.261 277.297 107.549 277.789L107.071 278.127L106.951 278.099C106.74 277.775 106.48 277.585 106.051 277.585C105.545 277.585 105.257 277.867 105.257 278.247C105.257 278.599 105.44 278.796 106.319 279.197C107.443 279.704 107.732 280.133 107.732 280.815C107.732 281.597 107.064 282.244 106.115 282.244ZM111.467 278.979V282.11H110.834V281.575C110.567 282.019 110.159 282.244 109.73 282.244C109.034 282.244 108.612 281.801 108.612 280.97V278.979H109.252V280.78C109.252 281.393 109.484 281.667 109.948 281.667C110.454 281.667 110.827 281.217 110.827 280.534V278.979H111.467ZM112.547 282.11V278.979H113.186V279.521C113.446 279.084 113.847 278.845 114.311 278.845C115.056 278.845 115.485 279.288 115.485 280.084V282.11H114.846V280.337C114.846 279.697 114.613 279.422 114.107 279.422C113.559 279.422 113.186 279.879 113.186 280.555V282.11H112.547ZM117.624 281.428L116.746 283.271L116.289 283.089L116.949 281.217L117.02 281.188L117.624 281.428ZM121.653 277.128L123.298 280.4H123.312L124.943 277.128H125.857V282.11H125.182V278.022H125.168L123.361 281.568H123.235L121.421 278.022H121.407L121.414 282.11H120.732V277.128H121.653ZM128.476 282.244C127.492 282.244 126.747 281.498 126.747 280.541C126.747 279.584 127.485 278.845 128.476 278.845C129.467 278.845 130.206 279.584 130.206 280.541C130.206 281.498 129.46 282.244 128.476 282.244ZM128.476 281.667C129.081 281.667 129.545 281.174 129.545 280.541C129.545 279.915 129.088 279.422 128.476 279.422C127.864 279.422 127.407 279.915 127.407 280.541C127.407 281.174 127.871 281.667 128.476 281.667ZM131.043 282.11V278.979H131.683V279.521C131.943 279.084 132.344 278.845 132.808 278.845C133.553 278.845 133.982 279.288 133.982 280.084V282.11H133.342V280.337C133.342 279.697 133.11 279.422 132.604 279.422C132.056 279.422 131.683 279.879 131.683 280.555V282.11H131.043ZM136.121 281.428L135.242 283.271L134.785 283.089L135.446 281.217L135.517 281.188L136.121 281.428ZM140.389 282.11V277.754H138.701V277.128H142.765V277.754H141.078V282.11H140.389ZM145.631 278.979V282.11H144.999V281.575C144.731 282.019 144.324 282.244 143.895 282.244C143.199 282.244 142.777 281.801 142.777 280.97V278.979H143.417V280.78C143.417 281.393 143.649 281.667 144.113 281.667C144.619 281.667 144.991 281.217 144.991 280.534V278.979H145.631ZM149.601 280.654H147.147V280.689C147.147 281.315 147.569 281.702 148.124 281.702C148.511 281.702 148.785 281.526 149.024 281.153L149.08 281.139L149.558 281.407C149.249 281.948 148.743 282.244 148.103 282.244C147.126 282.244 146.472 281.547 146.472 280.548C146.472 279.528 147.133 278.845 148.068 278.845C148.989 278.845 149.608 279.471 149.608 280.534C149.608 280.576 149.608 280.597 149.601 280.654ZM148.075 279.373C147.597 279.373 147.245 279.675 147.161 280.203H148.947C148.912 279.682 148.574 279.373 148.075 279.373ZM151.521 281.428L150.642 283.271L150.185 283.089L150.846 281.217L150.917 281.188L151.521 281.428ZM154.629 282.11V277.128H157.427L157.497 277.747H155.318V279.267H157.342V279.879H155.318V282.11H154.629ZM158.975 282.11H158.335V278.979H158.919V279.591C159.186 279.063 159.516 278.845 159.931 278.845C160.24 278.845 160.486 279.014 160.606 279.38L160.072 279.689L160.008 279.675C159.931 279.492 159.832 279.429 159.671 279.429C159.326 279.429 158.975 279.879 158.975 280.654V282.11ZM161.528 277.958C161.282 277.958 161.085 277.775 161.085 277.529C161.085 277.283 161.275 277.093 161.528 277.093C161.774 277.093 161.971 277.29 161.971 277.536C161.971 277.775 161.774 277.958 161.528 277.958ZM161.844 282.11H161.205V278.979H161.844V282.11ZM163.982 281.428L163.103 283.271L162.646 283.089L163.307 281.217L163.378 281.188L163.982 281.428ZM168.552 282.244C167.772 282.244 167.216 281.941 166.809 281.202L167.301 280.865L167.42 280.893C167.716 281.428 168.053 281.646 168.545 281.646C169.079 281.646 169.452 281.28 169.452 280.844C169.452 280.421 169.241 280.14 168.348 279.774C167.329 279.345 166.977 278.908 166.977 278.254C166.977 277.55 167.554 276.994 168.503 276.994C169.206 276.994 169.698 277.297 169.986 277.789L169.508 278.127L169.389 278.099C169.178 277.775 168.918 277.585 168.489 277.585C167.983 277.585 167.694 277.867 167.694 278.247C167.694 278.599 167.877 278.796 168.756 279.197C169.881 279.704 170.169 280.133 170.169 280.815C170.169 281.597 169.501 282.244 168.552 282.244ZM173.777 281.667L173.833 281.695V282.146C173.665 282.202 173.552 282.223 173.362 282.223C173.039 282.223 172.856 282.054 172.828 281.773C172.497 282.103 172.188 282.244 171.787 282.244C171.225 282.244 170.873 281.906 170.873 281.4C170.873 280.822 171.408 280.421 172.786 280.231V280.041C172.786 279.598 172.603 279.401 172.258 279.401C171.907 279.401 171.612 279.591 171.38 279.929L171.323 279.936L170.902 279.654C171.197 279.162 171.731 278.845 172.315 278.845C173.018 278.845 173.426 279.225 173.426 279.929V281.533C173.426 281.674 173.468 281.716 173.58 281.716C173.643 281.716 173.686 281.702 173.777 281.667ZM171.52 281.357C171.52 281.611 171.675 281.751 171.97 281.751C172.28 281.751 172.554 281.618 172.786 281.393V280.654C171.858 280.808 171.52 281.012 171.52 281.357ZM176.204 281.568L176.267 281.597L176.288 282.138C176.112 282.209 175.901 282.244 175.684 282.244C175.072 282.244 174.72 281.899 174.72 281.28V279.506H174.13V278.979H174.727V278.029L175.262 277.712H175.36V278.979H176.281V279.506H175.36V281.097C175.36 281.526 175.48 281.667 175.824 281.667C175.951 281.667 176.07 281.632 176.204 281.568Z" fill="#1D1E25"/>
<path opacity="0.6" d="M53.9682 266.922L55.543 269.097L55.4938 269.209H54.9032L53.3495 267.006H52.5269V269.209H51.9434V264.227H53.3776C54.4181 264.227 55.0087 264.684 55.0087 265.634C55.0087 266.289 54.6431 266.753 53.9682 266.922ZM53.23 264.747H52.5269V266.486H53.23C54.0525 266.486 54.4181 266.253 54.4181 265.634C54.4181 264.98 54.0455 264.747 53.23 264.747ZM58.9423 267.745H56.4605V267.774C56.4605 268.449 56.9174 268.857 57.508 268.857C57.9158 268.857 58.204 268.674 58.4642 268.273L58.5204 268.259L58.9071 268.52C58.5907 269.054 58.0986 269.343 57.4869 269.343C56.5378 269.343 55.891 268.653 55.891 267.654C55.891 266.626 56.5378 265.951 57.4518 265.951C58.3517 265.951 58.9493 266.563 58.9493 267.626C58.9493 267.668 58.9493 267.689 58.9423 267.745ZM57.4518 266.429C56.9385 266.429 56.5659 266.753 56.4815 267.309H58.3798C58.3447 266.76 57.9861 266.429 57.4518 266.429ZM63.641 265.951C64.3229 265.951 64.7518 266.394 64.7518 267.189V269.209H64.2175V267.429C64.2175 266.753 63.9644 266.451 63.4793 266.451C62.952 266.451 62.5723 266.978 62.5723 267.696V269.209H62.038V267.429C62.038 266.753 61.7849 266.451 61.2998 266.451C60.7725 266.451 60.3928 266.978 60.3928 267.696V269.209H59.8585V266.085H60.3928V266.641C60.6459 266.197 61.0045 265.951 61.4615 265.951C62.0028 265.951 62.3473 266.232 62.4809 266.746C62.7411 266.204 63.191 265.951 63.641 265.951ZM66.1607 264.994C65.9427 264.994 65.767 264.825 65.767 264.6C65.767 264.382 65.9427 264.206 66.1607 264.206C66.3786 264.206 66.5544 264.389 66.5544 264.607C66.5544 264.825 66.3786 264.994 66.1607 264.994ZM66.4278 269.209H65.8935V266.085H66.4278V269.209ZM67.5688 269.209V266.085H68.1031V266.641C68.3632 266.197 68.771 265.951 69.2421 265.951C69.9943 265.951 70.4232 266.394 70.4232 267.189V269.209H69.8889V267.422C69.8889 266.746 69.6358 266.451 69.0944 266.451C68.4968 266.451 68.1031 266.943 68.1031 267.647V269.209H67.5688ZM72.781 269.343C71.8951 269.343 71.3045 268.681 71.3045 267.647C71.3045 266.655 71.9584 265.951 72.788 265.951C73.2591 265.951 73.695 266.197 73.9551 266.641V265.62V264.051H74.4895V269.209H73.9762V268.667C73.7372 269.083 73.2661 269.343 72.781 269.343ZM72.8724 268.843C73.5473 268.843 73.9762 268.365 73.9762 267.654C73.9762 266.957 73.5192 266.451 72.9005 266.451C72.2748 266.451 71.867 266.915 71.867 267.647C71.867 268.4 72.2466 268.843 72.8724 268.843ZM78.4272 267.745H75.9454V267.774C75.9454 268.449 76.4024 268.857 76.9929 268.857C77.4007 268.857 77.689 268.674 77.9491 268.273L78.0053 268.259L78.392 268.52C78.0756 269.054 77.5835 269.343 76.9718 269.343C76.0227 269.343 75.3759 268.653 75.3759 267.654C75.3759 266.626 76.0227 265.951 76.9367 265.951C77.8366 265.951 78.4342 266.563 78.4342 267.626C78.4342 267.668 78.4342 267.689 78.4272 267.745ZM76.9367 266.429C76.4235 266.429 76.0508 266.753 75.9665 267.309H77.8647C77.8296 266.76 77.471 266.429 76.9367 266.429ZM79.8778 269.209H79.3435V266.085H79.8216V266.718C80.0887 266.176 80.4121 265.951 80.841 265.951C81.1293 265.951 81.3683 266.12 81.4878 266.451L81.0308 266.718L80.9746 266.704C80.8902 266.514 80.7848 266.451 80.616 266.451C80.2504 266.451 79.8778 266.929 79.8778 267.745V269.209ZM85.7513 268.745L85.8075 268.773L85.8286 269.244C85.6529 269.308 85.463 269.343 85.2521 269.343C84.6897 269.343 84.3522 269.012 84.3522 268.414V266.542H83.7546V266.085H84.3522V265.099L84.8162 264.818H84.8865V266.085H85.8216V266.542H84.8865V268.252C84.8865 268.695 85.0061 268.843 85.3576 268.843C85.4841 268.843 85.6107 268.808 85.7513 268.745ZM86.8955 264.994C86.6776 264.994 86.5018 264.825 86.5018 264.6C86.5018 264.382 86.6776 264.206 86.8955 264.206C87.1135 264.206 87.2892 264.389 87.2892 264.607C87.2892 264.825 87.1135 264.994 86.8955 264.994ZM87.1627 269.209H86.6284V266.085H87.1627V269.209ZM92.0864 265.951C92.7684 265.951 93.1973 266.394 93.1973 267.189V269.209H92.663V267.429C92.663 266.753 92.4098 266.451 91.9247 266.451C91.3974 266.451 91.0178 266.978 91.0178 267.696V269.209H90.4835V267.429C90.4835 266.753 90.2304 266.451 89.7453 266.451C89.218 266.451 88.8383 266.978 88.8383 267.696V269.209H88.304V266.085H88.8383V266.641C89.0914 266.197 89.45 265.951 89.907 265.951C90.4483 265.951 90.7928 266.232 90.9264 266.746C91.1865 266.204 91.6365 265.951 92.0864 265.951ZM97.1367 267.745H94.6549V267.774C94.6549 268.449 95.1119 268.857 95.7025 268.857C96.1103 268.857 96.3985 268.674 96.6587 268.273L96.7149 268.259L97.1016 268.52C96.7852 269.054 96.2931 269.343 95.6814 269.343C94.7323 269.343 94.0855 268.653 94.0855 267.654C94.0855 266.626 94.7323 265.951 95.6463 265.951C96.5462 265.951 97.1438 266.563 97.1438 267.626C97.1438 267.668 97.1438 267.689 97.1367 267.745ZM95.6463 266.429C95.133 266.429 94.7604 266.753 94.676 267.309H96.5743C96.5391 266.76 96.1806 266.429 95.6463 266.429ZM103.36 268.238L104.323 269.209H103.592L103.051 268.66C102.643 269.118 102.123 269.343 101.525 269.343C100.618 269.343 99.9783 268.752 99.9712 267.914C99.9642 267.337 100.281 266.88 100.941 266.521C100.506 266.078 100.33 265.648 100.33 265.254C100.33 264.557 100.815 264.093 101.56 264.093C102.277 264.093 102.798 264.55 102.798 265.177C102.798 265.782 102.467 266.261 101.771 266.619L102.987 267.858C103.177 267.506 103.318 267.063 103.388 266.556L103.444 266.514H103.965C103.831 267.225 103.627 267.795 103.36 268.238ZM101.567 264.55C101.131 264.55 100.864 264.832 100.864 265.226C100.864 265.585 101.173 266.007 101.42 266.268C102.059 265.909 102.263 265.592 102.263 265.191C102.263 264.832 101.982 264.55 101.567 264.55ZM101.532 268.843C101.975 268.843 102.376 268.646 102.685 268.294L101.286 266.873C100.752 267.161 100.527 267.485 100.534 267.921C100.541 268.47 100.949 268.843 101.532 268.843ZM108.147 269.343C107.261 269.343 106.671 268.681 106.671 267.647C106.671 266.655 107.325 265.951 108.154 265.951C108.625 265.951 109.061 266.197 109.321 266.641V265.62V264.051H109.856V269.209H109.342V268.667C109.103 269.083 108.632 269.343 108.147 269.343ZM108.239 268.843C108.914 268.843 109.342 268.365 109.342 267.654C109.342 266.957 108.885 266.451 108.267 266.451C107.641 266.451 107.233 266.915 107.233 267.647C107.233 268.4 107.613 268.843 108.239 268.843ZM113.575 268.808L113.632 268.836V269.251C113.463 269.301 113.372 269.322 113.189 269.322C112.9 269.322 112.718 269.16 112.697 268.864C112.359 269.202 112.057 269.343 111.67 269.343C111.115 269.343 110.756 268.998 110.756 268.484C110.756 267.907 111.305 267.499 112.676 267.316V267.119C112.676 266.648 112.479 266.436 112.113 266.436C111.747 266.436 111.438 266.641 111.206 266.985L111.15 266.992L110.777 266.746C111.066 266.261 111.586 265.951 112.148 265.951C112.809 265.951 113.21 266.324 113.21 266.999V268.674C113.21 268.815 113.252 268.857 113.372 268.857C113.435 268.857 113.484 268.843 113.575 268.808ZM111.797 268.885C112.141 268.885 112.444 268.738 112.676 268.498V267.724C111.684 267.886 111.319 268.104 111.319 268.47C111.319 268.731 111.48 268.885 111.797 268.885ZM114.893 270.743H114.288L115.181 268.9L113.916 266.085H114.527L115.456 268.322H115.47L116.433 266.085H117.037L114.893 270.743ZM118.562 269.343C117.999 269.343 117.557 269.104 117.31 268.66L117.732 268.372L117.767 268.379C117.943 268.695 118.217 268.878 118.576 268.878C118.956 268.878 119.195 268.702 119.195 268.442C119.195 268.231 119.089 268.069 118.478 267.851C117.634 267.548 117.43 267.253 117.43 266.831C117.43 266.359 117.838 265.951 118.534 265.951C119.075 265.951 119.483 266.211 119.652 266.612L119.286 266.866L119.23 266.859C119.103 266.577 118.857 266.415 118.513 266.415C118.168 266.415 117.971 266.591 117.971 266.809C117.971 267.006 118.056 267.147 118.695 267.386C119.497 267.689 119.736 267.957 119.736 268.428C119.736 268.942 119.272 269.343 118.562 269.343Z" fill="#1D1E25"/>
<path d="M64.51 328.445C64.9334 328.445 65.2767 328.101 65.2767 327.677C65.2767 327.254 64.9334 326.91 64.51 326.91C64.0865 326.91 63.7432 327.254 63.7432 327.677C63.7432 328.101 64.0865 328.445 64.51 328.445Z" fill="#7FDBD5"/>
<path d="M68.0355 329.945C68.4705 329.945 68.8231 329.566 68.8231 329.099C68.8231 328.631 68.4705 328.252 68.0355 328.252C67.6006 328.252 67.248 328.631 67.248 329.099C67.248 329.566 67.6006 329.945 68.0355 329.945Z" fill="#38648C"/>
<path d="M65.5931 325.045C66.028 325.045 66.3806 324.666 66.3806 324.198C66.3806 323.731 66.028 323.352 65.5931 323.352C65.1582 323.352 64.8057 323.731 64.8057 324.198C64.8057 324.666 65.1582 325.045 65.5931 325.045Z" fill="#38648C"/>
<path d="M68.8554 326.91C69.42 326.91 69.8777 326.452 69.8777 325.887C69.8777 325.322 69.42 324.863 68.8554 324.863C68.2908 324.863 67.833 325.322 67.833 325.887C67.833 326.452 68.2908 326.91 68.8554 326.91Z" fill="#7FDBD5"/>
<path d="M65.5328 332.539C66.2386 332.539 66.8108 331.966 66.8108 331.26C66.8108 330.553 66.2386 329.98 65.5328 329.98C64.827 329.98 64.2549 330.553 64.2549 331.26C64.2549 331.966 64.827 332.539 65.5328 332.539Z" fill="#F28B74"/>
<path d="M61.3644 308.897L57.6084 312.286L62.3667 317.701L66.1227 314.311C67.5982 312.98 67.7291 310.688 66.4151 309.193C65.1012 307.697 62.8399 307.565 61.3644 308.897Z" fill="#7FDBD5"/>
<path d="M53.6954 315.461L57.4514 312.072L62.2097 317.487L58.4537 320.876C56.9782 322.208 54.7169 322.075 53.4029 320.58C52.0889 319.084 52.2199 316.793 53.6954 315.461Z" fill="#287D99"/>
<path opacity="0.1" d="M66.4052 309.686C65.6521 308.851 64.5914 308.448 63.5419 308.494C63.2451 309.448 63.3525 310.519 63.9305 311.433L65.1287 313.326C65.3352 313.653 65.2674 314.08 64.9681 314.326C62.7262 316.174 59.8588 318.169 58.3591 318.775C56.0656 319.702 54.0618 317.357 54.3853 315.465L53.737 316.034C52.2518 317.339 52.0658 319.592 53.3692 321.074C54.6934 322.58 57.0057 322.724 58.5102 321.402L66.1093 314.726C67.6019 313.415 67.7344 311.158 66.4052 309.686Z" fill="black"/>
<path d="M64.7938 309.859L67.4358 314.118L73.4562 310.336L70.8143 306.077C69.7764 304.404 67.5873 303.894 65.9248 304.939C64.2623 305.983 63.7559 308.186 64.7938 309.859Z" fill="#76B7EB"/>
<path d="M69.9633 318.578L67.3213 314.319L73.3418 310.537L75.9837 314.796C77.0219 316.469 76.5151 318.672 74.853 319.717C73.1902 320.761 71.0012 320.252 69.9633 318.578Z" fill="#D1EFF2"/>
<path opacity="0.1" d="M75.0507 319.708C75.2118 319.606 75.3618 319.494 75.5013 319.372C71.2493 318.739 65.7066 308.456 65.9565 304.908C65.9503 304.912 65.944 304.915 65.9378 304.919C64.2623 305.979 63.752 308.214 64.798 309.912L70.1231 318.554C71.1692 320.251 73.3754 320.768 75.0507 319.708Z" fill="black"/>
<path d="M59.7488 324.06L63.9687 325.862C64.1243 325.929 64.3028 325.853 64.3672 325.692L66.7865 319.673C66.8509 319.512 66.777 319.328 66.6214 319.262L62.4015 317.461C60.6331 316.705 58.6056 317.571 57.8731 319.393C57.1406 321.216 57.9804 323.306 59.7488 324.06Z" fill="#F28B74"/>
<path opacity="0.1" d="M64.655 325.695L65.2762 324.222C60.0799 323.25 58.3352 320.233 58.7419 318.213C58.3821 318.546 58.0859 318.957 57.8844 319.435C57.1207 321.247 57.9962 323.323 59.84 324.073L64.2395 325.864C64.4018 325.93 64.5878 325.854 64.655 325.695Z" fill="black"/>
<path d="M74.3819 324.062L70.1623 325.864C70.0067 325.93 69.8283 325.855 69.7638 325.694L67.3446 319.675C67.2801 319.514 67.354 319.33 67.5097 319.264L71.7296 317.463C73.498 316.707 75.5255 317.573 76.2579 319.395C76.9903 321.218 76.1507 323.308 74.3819 324.062Z" fill="#76B7EB"/>
<mask id="mask6_1673_23603" style="mask-type:luminance" maskUnits="userSpaceOnUse" x="84" y="303" width="72" height="31">
<path d="M155.616 303.811H84.7246V333.133H155.616V303.811Z" fill="white"/>
</mask>
<g mask="url(#mask6_1673_23603)">
<path d="M90.4251 314.952H89.5392L88.9568 313.498H86.2413L85.6671 314.952H84.7812L87.2502 309.139H87.972L90.4251 314.952ZM87.1927 311.109L86.5119 312.833H88.6862L87.9884 311.109C87.8407 310.732 87.7095 310.395 87.6029 310.067H87.5865C87.4716 310.395 87.3486 310.732 87.1927 311.109ZM95.5246 311.142C96.312 311.142 96.8123 311.659 96.8123 312.587V314.952H96.0659V312.891C96.0659 312.144 95.7952 311.815 95.2703 311.815C94.7043 311.815 94.286 312.39 94.286 313.187V314.952H93.5396V312.891C93.5396 312.144 93.2689 311.815 92.744 311.815C92.178 311.815 91.7597 312.39 91.7597 313.187V314.952H91.0133V311.298H91.7597V311.93C92.055 311.421 92.4733 311.142 92.9983 311.142C93.6134 311.142 94.0235 311.462 94.1794 312.053C94.4829 311.43 94.9996 311.142 95.5246 311.142ZM99.8168 315.108C98.6684 315.108 97.799 314.237 97.799 313.121C97.799 312.004 98.6602 311.142 99.8168 311.142C100.973 311.142 101.835 312.004 101.835 313.121C101.835 314.237 100.965 315.108 99.8168 315.108ZM99.8168 314.434C100.522 314.434 101.064 313.86 101.064 313.121C101.064 312.39 100.53 311.815 99.8168 311.815C99.1031 311.815 98.57 312.39 98.57 313.121C98.57 313.86 99.1113 314.434 99.8168 314.434ZM102.989 314.952H102.086L103.497 313.055L102.127 311.298H103.038L103.637 312.136C103.735 312.283 103.834 312.415 103.924 312.554H103.94C104.039 312.407 104.121 312.283 104.227 312.136L104.842 311.298H105.745L104.367 313.055L105.786 314.952H104.867L104.211 314.008C104.112 313.86 104.022 313.728 103.94 313.589H103.924C103.834 313.728 103.735 313.86 103.637 314.008L102.989 314.952ZM106.882 310.108C106.595 310.108 106.365 309.894 106.365 309.607C106.365 309.319 106.587 309.098 106.882 309.098C107.169 309.098 107.399 309.328 107.399 309.615C107.399 309.894 107.169 310.108 106.882 310.108ZM107.251 314.952H106.505V311.298H107.251V314.952ZM109.27 314.952H108.524V308.934H109.27V314.952Z" fill="#1D1E25"/>
<path d="M118.408 314.073H119.384V311.141H118.408V314.073ZM118.896 310.163C119.034 310.163 119.151 310.116 119.244 310.022C119.338 309.928 119.384 309.813 119.384 309.674C119.384 309.536 119.338 309.42 119.244 309.326C119.15 309.232 119.034 309.185 118.896 309.186C118.758 309.186 118.642 309.233 118.548 309.327C118.454 309.421 118.407 309.536 118.408 309.674C118.408 309.813 118.455 309.929 118.548 310.023C118.642 310.117 118.758 310.164 118.896 310.163ZM118.896 316.517C118.221 316.517 117.586 316.388 116.992 316.131C116.398 315.874 115.881 315.527 115.442 315.087C115.003 314.647 114.655 314.13 114.399 313.535C114.142 312.94 114.014 312.305 114.014 311.629C114.014 310.953 114.142 310.318 114.399 309.723C114.655 309.128 115.003 308.612 115.442 308.172C115.881 307.732 116.398 307.384 116.992 307.127C117.586 306.871 118.221 306.743 118.896 306.742C119.571 306.742 120.206 306.871 120.8 307.127C121.394 307.384 121.911 307.732 122.35 308.172C122.79 308.612 123.138 309.128 123.394 309.723C123.651 310.318 123.779 310.953 123.779 311.629C123.779 312.305 123.65 312.94 123.394 313.535C123.137 314.13 122.79 314.647 122.35 315.087C121.911 315.527 121.394 315.875 120.8 316.132C120.206 316.389 119.571 316.517 118.896 316.517Z" fill="#489597"/>
<path d="M86.8654 328.442H86.1847V324.033C86.1847 323.852 86.1847 323.647 86.1929 323.466L86.1764 323.458C86.037 323.548 85.8976 323.63 85.7581 323.712L85.0363 324.123L84.9707 324.098L85.0363 323.376L86.7178 322.522H86.8654V328.442ZM90.2337 328.598C88.9623 328.598 88.1913 327.44 88.1913 325.527C88.1913 323.622 88.9623 322.473 90.2337 322.473C91.505 322.473 92.2761 323.622 92.2761 325.527C92.2761 327.44 91.505 328.598 90.2337 328.598ZM90.2337 327.974C91.0785 327.974 91.5789 327.054 91.5789 325.519C91.5789 324 91.0785 323.097 90.2337 323.097C89.3888 323.097 88.8885 324 88.8885 325.519C88.8885 327.054 89.3888 327.974 90.2337 327.974ZM100.337 324.64C101.133 324.64 101.633 325.157 101.633 326.085V328.442H101.01V326.364C101.01 325.576 100.715 325.223 100.149 325.223C99.5334 325.223 99.0905 325.839 99.0905 326.676V328.442H98.4671V326.364C98.4671 325.576 98.1718 325.223 97.6058 325.223C96.9907 325.223 96.5477 325.839 96.5477 326.676V328.442H95.9244V324.796H96.5477V325.445C96.843 324.928 97.2613 324.64 97.7945 324.64C98.4261 324.64 98.828 324.969 98.9838 325.568C99.2873 324.936 99.8123 324.64 100.337 324.64ZM104.319 330.33C103.146 330.33 102.416 329.878 102.416 329.139C102.416 328.721 102.744 328.392 103.277 328.228C103.039 328.105 102.933 327.941 102.933 327.744C102.933 327.448 103.13 327.267 103.589 327.144C103.048 326.964 102.711 326.504 102.711 325.954C102.711 325.19 103.384 324.64 104.302 324.64C104.581 324.64 104.844 324.698 105.065 324.796H106.205L106.222 325.264L106.148 325.33L105.656 325.281C105.795 325.486 105.877 325.724 105.877 325.995C105.877 326.668 105.393 327.136 104.573 327.235C103.819 327.325 103.564 327.432 103.564 327.629C103.564 327.793 103.778 327.867 104.483 327.957C105.68 328.113 106.197 328.458 106.197 329.115C106.197 329.87 105.484 330.33 104.319 330.33ZM104.294 326.742C104.885 326.742 105.254 326.438 105.254 325.962C105.254 325.478 104.877 325.174 104.294 325.174C103.712 325.174 103.335 325.478 103.335 325.962C103.335 326.438 103.704 326.742 104.294 326.742ZM104.335 329.796C105.115 329.796 105.541 329.566 105.541 329.123C105.541 328.745 105.106 328.556 104.327 328.483C104.229 328.474 104.089 328.458 103.983 328.442C103.392 328.556 103.08 328.778 103.08 329.107C103.08 329.517 103.589 329.796 104.335 329.796Z" fill="#808D9E"/>
</g>
<path d="M210.504 253.376V247.563H213.891L213.974 248.285H211.308V250.042H213.768V250.756H211.308V252.653H213.974L213.891 253.376H210.504ZM216.519 253.532C215.502 253.532 214.821 252.76 214.821 251.545C214.821 250.379 215.576 249.566 216.536 249.566C217.077 249.566 217.577 249.845 217.881 250.354C217.873 249.976 217.873 249.566 217.873 249.164V247.357H218.619V253.376H217.905V252.752C217.626 253.236 217.077 253.532 216.519 253.532ZM216.691 252.858C217.43 252.858 217.897 252.333 217.897 251.553C217.897 250.789 217.405 250.239 216.724 250.239C216.043 250.239 215.592 250.748 215.592 251.545C215.592 252.374 216.011 252.858 216.691 252.858ZM220.268 248.531C219.981 248.531 219.751 248.318 219.751 248.031C219.751 247.743 219.972 247.522 220.268 247.522C220.555 247.522 220.784 247.752 220.784 248.039C220.784 248.318 220.555 248.531 220.268 248.531ZM220.637 253.376H219.89V249.722H220.637V253.376ZM223.812 252.743L223.885 252.776L223.91 253.408C223.705 253.49 223.459 253.532 223.205 253.532C222.491 253.532 222.081 253.129 222.081 252.407V250.338H221.392V249.722H222.089V248.614L222.713 248.244H222.827V249.722H223.902V250.338H222.827V252.193C222.827 252.694 222.967 252.858 223.369 252.858C223.516 252.858 223.656 252.817 223.812 252.743Z" fill="#449598"/>
<path d="M249.353 489.129H29.6475V501.444H249.353V489.129Z" fill="white"/>
<path d="M177.583 493.82H102.004C101.195 493.82 100.539 494.477 100.539 495.286C100.539 496.096 101.195 496.753 102.004 496.753H177.583C178.392 496.753 179.047 496.096 179.047 495.286C179.047 494.477 178.392 493.82 177.583 493.82Z" fill="#29395C"/>
<path opacity="0.35" d="M237.831 34.5332H228.066C227.365 34.5332 226.797 35.1021 226.797 35.8039V39.3225C226.797 40.0242 227.365 40.5932 228.066 40.5932H237.831C238.532 40.5932 239.1 40.0242 239.1 39.3225V35.8039C239.1 35.1021 238.532 34.5332 237.831 34.5332Z" stroke="#333333"/>
<path opacity="0.4" d="M239.979 36.3887V38.7345C240.451 38.5358 240.758 38.0736 240.758 37.5616C240.758 37.0495 240.451 36.5874 239.979 36.3887Z" fill="#333333"/>
<path d="M237.441 35.4121H228.457C228.026 35.4121 227.676 35.7622 227.676 36.194V38.9308C227.676 39.3627 228.026 39.7127 228.457 39.7127H237.441C237.872 39.7127 238.222 39.3627 238.222 38.9308V36.194C238.222 35.7622 237.872 35.4121 237.441 35.4121Z" fill="#333333"/>
<path fill-rule="evenodd" clip-rule="evenodd" d="M219.081 35.5738C220.379 35.5739 221.628 36.0732 222.569 36.9686C222.639 37.0377 222.753 37.0368 222.822 36.9666L223.5 36.2824C223.535 36.2468 223.555 36.1986 223.555 36.1484C223.554 36.0982 223.534 36.0502 223.498 36.015C221.029 33.646 217.133 33.646 214.663 36.015C214.628 36.0502 214.607 36.0982 214.606 36.1484C214.606 36.1986 214.626 36.2468 214.662 36.2824L215.339 36.9666C215.409 37.0369 215.522 37.0378 215.592 36.9686C216.533 36.0731 217.783 35.5738 219.081 35.5738ZM219.08 37.8003C219.793 37.8003 220.481 38.0656 221.01 38.5449C221.082 38.6129 221.194 38.6114 221.264 38.5416L221.941 37.8574C221.976 37.8215 221.996 37.7728 221.995 37.7222C221.995 37.6716 221.974 37.6233 221.938 37.5882C220.328 36.089 217.834 36.089 216.224 37.5882C216.188 37.6233 216.167 37.6717 216.166 37.7223C216.166 37.7729 216.186 37.8216 216.221 37.8574L216.898 38.5416C216.968 38.6114 217.08 38.6129 217.152 38.5449C217.68 38.066 218.367 37.8006 219.08 37.8003ZM220.435 39.2978C220.437 39.3486 220.417 39.3975 220.38 39.433L219.21 40.6151C219.176 40.6498 219.129 40.6694 219.08 40.6694C219.032 40.6694 218.985 40.6498 218.95 40.6151L217.78 39.433C217.744 39.3975 217.724 39.3486 217.725 39.2978C217.726 39.247 217.748 39.199 217.785 39.165C218.533 38.5323 219.627 38.5323 220.375 39.165C220.413 39.1991 220.434 39.2471 220.435 39.2978Z" fill="#333333"/>
<path fill-rule="evenodd" clip-rule="evenodd" d="M211.076 34.4336H210.49C210.167 34.4336 209.905 34.6961 209.905 35.02V40.1026C209.905 40.4265 210.167 40.6891 210.49 40.6891H211.076C211.4 40.6891 211.662 40.4265 211.662 40.1026V35.02C211.662 34.6961 211.4 34.4336 211.076 34.4336ZM207.755 35.8024H208.341C208.665 35.8024 208.927 36.0649 208.927 36.3888V40.103C208.927 40.4269 208.665 40.6894 208.341 40.6894H207.755C207.432 40.6894 207.17 40.4269 207.17 40.103V36.3888C207.17 36.0649 207.432 35.8024 207.755 35.8024ZM205.609 37.17H205.023C204.7 37.17 204.437 37.4325 204.437 37.7564V40.1022C204.437 40.4261 204.7 40.6887 205.023 40.6887H205.609C205.932 40.6887 206.195 40.4261 206.195 40.1022V37.7564C206.195 37.4325 205.932 37.17 205.609 37.17ZM202.874 38.3429H202.288C201.965 38.3429 201.702 38.6054 201.702 38.9293V40.1022C201.702 40.4261 201.965 40.6887 202.288 40.6887H202.874C203.197 40.6887 203.46 40.4261 203.46 40.1022V38.9293C203.46 38.6054 203.197 38.3429 202.874 38.3429Z" fill="#333333"/>
<path d="M50.6173 35.1109V41.082H49.3561V36.3092H49.3211L47.9551 37.1664V36.0468L49.4318 35.1109H50.6173ZM54.4663 35.1109V41.082H53.2051V36.3092H53.1701L51.8041 37.1664V36.0468L53.2809 35.1109H54.4663ZM56.457 41.1579C56.2648 41.1579 56.0997 41.0898 55.9619 40.9537C55.8259 40.8157 55.7579 40.6505 55.7579 40.4581C55.7579 40.2676 55.8259 40.1044 55.9619 39.9683C56.0997 39.8322 56.2648 39.7642 56.457 39.7642C56.6434 39.7642 56.8065 39.8322 56.9464 39.9683C57.0862 40.1044 57.1561 40.2676 57.1561 40.4581C57.1561 40.5864 57.1231 40.704 57.0571 40.8109C56.993 40.9158 56.9085 41.0004 56.8036 41.0646C56.6988 41.1267 56.5833 41.1579 56.457 41.1579ZM56.457 38.0207C56.2648 38.0207 56.0997 37.9526 55.9619 37.8166C55.8259 37.6805 55.7579 37.5153 55.7579 37.3209C55.7579 37.1304 55.8259 36.9682 55.9619 36.834C56.0997 36.698 56.2648 36.6299 56.457 36.6299C56.6434 36.6299 56.8065 36.698 56.9464 36.834C57.0862 36.9682 57.1561 37.1304 57.1561 37.3209C57.1561 37.4512 57.1231 37.5697 57.0571 37.6766C56.993 37.7816 56.9085 37.8652 56.8036 37.9273C56.6988 37.9896 56.5833 38.0207 56.457 38.0207ZM57.9991 41.082V40.1724L60.1225 38.2043C60.3031 38.0294 60.4546 37.872 60.5769 37.732C60.7012 37.5921 60.7954 37.455 60.8594 37.3209C60.9235 37.1848 60.9556 37.0381 60.9556 36.8807C60.9556 36.7057 60.9158 36.5551 60.8362 36.4287C60.7565 36.3005 60.6478 36.2023 60.51 36.1343C60.372 36.0643 60.2157 36.0293 60.041 36.0293C59.8585 36.0293 59.6992 36.0663 59.5633 36.1401C59.4274 36.214 59.3225 36.3199 59.2487 36.4579C59.1749 36.5959 59.138 36.7601 59.138 36.9507H57.9409C57.9409 36.56 58.0292 36.2208 58.2059 35.9331C58.3826 35.6454 58.6302 35.4229 58.9487 35.2655C59.2671 35.108 59.6342 35.0293 60.0497 35.0293C60.4769 35.0293 60.8488 35.1051 61.1653 35.2567C61.4837 35.4064 61.7313 35.6143 61.908 35.8806C62.0847 36.147 62.1731 36.4521 62.1731 36.7962C62.1731 37.0216 62.1285 37.2441 62.0391 37.4638C61.9517 37.6834 61.7954 37.9274 61.5702 38.1956C61.3449 38.4619 61.0274 38.7816 60.6177 39.1548L59.7468 40.0091V40.0499H62.2518V41.082H57.9991ZM65.3405 41.2132C64.8396 41.2113 64.4085 41.0878 64.0473 40.8429C63.688 40.598 63.4113 40.2433 63.2171 39.7788C63.0249 39.3142 62.9298 38.7554 62.9317 38.1023C62.9317 37.4512 63.0278 36.8963 63.2201 36.4375C63.4142 35.9788 63.6909 35.6299 64.0502 35.3908C64.4113 35.1498 64.8415 35.0293 65.3405 35.0293C65.8396 35.0293 66.2688 35.1498 66.628 35.3908C66.9892 35.6318 67.2669 35.9817 67.461 36.4404C67.6552 36.8972 67.7513 37.4512 67.7494 38.1023C67.7494 38.7574 67.6523 39.3171 67.4581 39.7817C67.2659 40.2462 66.9902 40.601 66.6309 40.8459C66.2716 41.0908 65.8415 41.2132 65.3405 41.2132ZM65.3405 40.1665C65.6823 40.1665 65.9551 39.9945 66.159 39.6505C66.3629 39.3064 66.4639 38.7904 66.462 38.1023C66.462 37.6494 66.4153 37.2723 66.3221 36.9711C66.2309 36.6698 66.1008 36.4433 65.9318 36.2917C65.7648 36.1401 65.5678 36.0643 65.3405 36.0643C65.0007 36.0643 64.7289 36.2344 64.5249 36.5745C64.3211 36.9147 64.2182 37.4239 64.2162 38.1023C64.2162 38.561 64.2618 38.944 64.3531 39.251C64.4463 39.5562 64.5774 39.7856 64.7463 39.9391C64.9153 40.0908 65.1133 40.1665 65.3405 40.1665Z" fill="#333333"/>
</g>
</g>
</g>
<path d="M186.078 16.4512H92.3371C87.8071 16.4512 84.1348 20.127 84.1348 24.6615V27.0072C84.1348 31.5417 87.8071 35.2175 92.3371 35.2175H186.078C190.608 35.2175 194.281 31.5417 194.281 27.0072V24.6615C194.281 20.127 190.608 16.4512 186.078 16.4512Z" fill="black"/>
<path d="M153.269 24.6621H125.732C125.085 24.6621 124.561 25.1872 124.561 25.835V26.4215C124.561 27.0692 125.085 27.5944 125.732 27.5944H153.269C153.916 27.5944 154.441 27.0692 154.441 26.4215V25.835C154.441 25.1872 153.916 24.6621 153.269 24.6621Z" fill="#27282F"/>
</g>
</g>
</g>
<defs>
<filter id="filter0_d_1673_23603" x="0" y="0" width="289" height="542" filterUnits="userSpaceOnUse" color-interpolation-filters="sRGB">
<feFlood flood-opacity="0" result="BackgroundImageFix"/>
<feColorMatrix in="SourceAlpha" type="matrix" values="0 0 0 0 0 0 0 0 0 0 0 0 0 0 0 0 0 0 127 0" result="hardAlpha"/>
<feOffset dx="5" dy="10"/>
<feGaussianBlur stdDeviation="10"/>
<feComposite in2="hardAlpha" operator="out"/>
<feColorMatrix type="matrix" values="0 0 0 0 0 0 0 0 0 0 0 0 0 0 0 0 0 0 0.25 0"/>
<feBlend mode="normal" in2="BackgroundImageFix" result="effect1_dropShadow_1673_23603"/>
<feBlend mode="normal" in="SourceGraphic" in2="effect1_dropShadow_1673_23603" result="shape"/>
</filter>
<filter id="filter1_i_1673_23603" x="16.7578" y="10" width="245.484" height="502" filterUnits="userSpaceOnUse" color-interpolation-filters="sRGB">
<feFlood flood-opacity="0" result="BackgroundImageFix"/>
<feBlend mode="normal" in="SourceGraphic" in2="BackgroundImageFix" result="shape"/>
<feColorMatrix in="SourceAlpha" type="matrix" values="0 0 0 0 0 0 0 0 0 0 0 0 0 0 0 0 0 0 127 0" result="hardAlpha"/>
<feOffset/>
<feGaussianBlur stdDeviation="4"/>
<feComposite in2="hardAlpha" operator="arithmetic" k2="-1" k3="1"/>
<feColorMatrix type="matrix" values="0 0 0 0 0 0 0 0 0 0 0 0 0 0 0 0 0 0 0.3 0"/>
<feBlend mode="normal" in2="shape" result="effect1_innerShadow_1673_23603"/>
</filter>
<filter id="filter2_i_1673_23603" x="15" y="89.7578" width="2.75781" height="17.5938" filterUnits="userSpaceOnUse" color-interpolation-filters="sRGB">
<feFlood flood-opacity="0" result="BackgroundImageFix"/>
<feBlend mode="normal" in="SourceGraphic" in2="BackgroundImageFix" result="shape"/>
<feColorMatrix in="SourceAlpha" type="matrix" values="0 0 0 0 0 0 0 0 0 0 0 0 0 0 0 0 0 0 127 0" result="hardAlpha"/>
<feOffset dx="1"/>
<feGaussianBlur stdDeviation="1"/>
<feComposite in2="hardAlpha" operator="arithmetic" k2="-1" k3="1"/>
<feColorMatrix type="matrix" values="0 0 0 0 1 0 0 0 0 1 0 0 0 0 1 0 0 0 1 0"/>
<feBlend mode="normal" in2="shape" result="effect1_innerShadow_1673_23603"/>
</filter>
<filter id="filter3_i_1673_23603" x="15" y="126.117" width="2.75781" height="36.3594" filterUnits="userSpaceOnUse" color-interpolation-filters="sRGB">
<feFlood flood-opacity="0" result="BackgroundImageFix"/>
<feBlend mode="normal" in="SourceGraphic" in2="BackgroundImageFix" result="shape"/>
<feColorMatrix in="SourceAlpha" type="matrix" values="0 0 0 0 0 0 0 0 0 0 0 0 0 0 0 0 0 0 127 0" result="hardAlpha"/>
<feOffset dx="1"/>
<feGaussianBlur stdDeviation="1"/>
<feComposite in2="hardAlpha" operator="arithmetic" k2="-1" k3="1"/>
<feColorMatrix type="matrix" values="0 0 0 0 1 0 0 0 0 1 0 0 0 0 1 0 0 0 1 0"/>
<feBlend mode="normal" in2="shape" result="effect1_innerShadow_1673_23603"/>
</filter>
<filter id="filter4_i_1673_23603" x="15" y="173.033" width="2.75781" height="36.3594" filterUnits="userSpaceOnUse" color-interpolation-filters="sRGB">
<feFlood flood-opacity="0" result="BackgroundImageFix"/>
<feBlend mode="normal" in="SourceGraphic" in2="BackgroundImageFix" result="shape"/>
<feColorMatrix in="SourceAlpha" type="matrix" values="0 0 0 0 0 0 0 0 0 0 0 0 0 0 0 0 0 0 127 0" result="hardAlpha"/>
<feOffset dx="1"/>
<feGaussianBlur stdDeviation="1"/>
<feComposite in2="hardAlpha" operator="arithmetic" k2="-1" k3="1"/>
<feColorMatrix type="matrix" values="0 0 0 0 1 0 0 0 0 1 0 0 0 0 1 0 0 0 1 0"/>
<feBlend mode="normal" in2="shape" result="effect1_innerShadow_1673_23603"/>
</filter>
<filter id="filter5_i_1673_23603" x="261.242" y="139.02" width="2.75781" height="58.6445" filterUnits="userSpaceOnUse" color-interpolation-filters="sRGB">
<feFlood flood-opacity="0" result="BackgroundImageFix"/>
<feBlend mode="normal" in="SourceGraphic" in2="BackgroundImageFix" result="shape"/>
<feColorMatrix in="SourceAlpha" type="matrix" values="0 0 0 0 0 0 0 0 0 0 0 0 0 0 0 0 0 0 127 0" result="hardAlpha"/>
<feOffset dx="-1"/>
<feGaussianBlur stdDeviation="1"/>
<feComposite in2="hardAlpha" operator="arithmetic" k2="-1" k3="1"/>
<feColorMatrix type="matrix" values="0 0 0 0 1 0 0 0 0 1 0 0 0 0 1 0 0 0 1 0"/>
<feBlend mode="normal" in2="shape" result="effect1_innerShadow_1673_23603"/>
</filter>
<filter id="filter6_d_1673_23603" x="-59.8066" y="58.4922" width="396.271" height="308.492" filterUnits="userSpaceOnUse" color-interpolation-filters="sRGB">
<feFlood flood-opacity="0" result="BackgroundImageFix"/>
<feColorMatrix in="SourceAlpha" type="matrix" values="0 0 0 0 0 0 0 0 0 0 0 0 0 0 0 0 0 0 127 0" result="hardAlpha"/>
<feOffset dy="40"/>
<feGaussianBlur stdDeviation="50"/>
<feColorMatrix type="matrix" values="0 0 0 0 0.918333 0 0 0 0 0.9272 0 0 0 0 0.95 0 0 0 1 0"/>
<feBlend mode="darken" in2="BackgroundImageFix" result="effect1_dropShadow_1673_23603"/>
<feBlend mode="normal" in="SourceGraphic" in2="effect1_dropShadow_1673_23603" result="shape"/>
</filter>
<filter id="filter7_d_1673_23603" x="-59.8066" y="178.129" width="396.271" height="308.492" filterUnits="userSpaceOnUse" color-interpolation-filters="sRGB">
<feFlood flood-opacity="0" result="BackgroundImageFix"/>
<feColorMatrix in="SourceAlpha" type="matrix" values="0 0 0 0 0 0 0 0 0 0 0 0 0 0 0 0 0 0 127 0" result="hardAlpha"/>
<feOffset dy="40"/>
<feGaussianBlur stdDeviation="50"/>
<feColorMatrix type="matrix" values="0 0 0 0 0.918333 0 0 0 0 0.9272 0 0 0 0 0.95 0 0 0 1 0"/>
<feBlend mode="darken" in2="BackgroundImageFix" result="effect1_dropShadow_1673_23603"/>
<feBlend mode="normal" in="SourceGraphic" in2="effect1_dropShadow_1673_23603" result="shape"/>
</filter>
<linearGradient id="paint0_linear_1673_23603" x1="139.5" y1="9.99974" x2="139.5" y2="512" gradientUnits="userSpaceOnUse">
<stop stop-color="white" stop-opacity="0.6"/>
<stop offset="1" stop-color="white" stop-opacity="0.3"/>
</linearGradient>
<clipPath id="clip0_1673_23603">
<rect x="15" y="10" width="249" height="502" rx="40" fill="white"/>
</clipPath>
</defs>
</svg>
