<svg width="124" height="55" viewBox="0 0 124 55" fill="none" xmlns="http://www.w3.org/2000/svg">
<g clip-path="url(#clip0_47_11)">
<path d="M49.5092 18.4703L44.4297 11.3821H46.3759L50.3612 17.0514H50.381L54.3297 11.3821H56.2362L51.1948 18.4535V23.6443H49.5092V18.4703Z" fill="#EA786A"/>
<path d="M68.8459 19.6896H61.4178C61.6586 21.4528 63.0683 22.5242 64.9581 22.5242C66.1809 22.5153 67.3667 22.104 68.3323 21.3538V22.8534C67.2855 23.5183 66.067 23.8621 64.827 23.8425C61.7135 23.8425 59.749 21.9802 59.749 19.2278C59.749 16.3443 61.9909 14.5308 64.5863 14.5308C66.9591 14.5308 68.9053 16.0807 68.9053 19.0129C68.9065 19.2398 68.8866 19.4663 68.8459 19.6896ZM67.2502 18.5526C67.2137 16.7071 65.935 15.849 64.5634 15.849C63.7989 15.8359 63.0561 16.104 62.4762 16.6024C61.8963 17.1008 61.5197 17.7948 61.4178 18.5526H67.2502Z" fill="#EA786A"/>
<path d="M83.6014 17.7448V23.6443H81.8976V18.2874C81.8976 16.7222 81.099 15.98 79.5978 15.98C78.1698 15.98 77.0954 16.9036 77.0954 18.2066V23.6443H75.39V14.7288H76.7068L76.8912 16.0806H76.9476C77.2974 15.5932 77.7599 15.1977 78.2957 14.9278C78.8315 14.6579 79.4247 14.5217 80.0245 14.5307C82.1932 14.5307 83.6014 15.7834 83.6014 17.7448Z" fill="#EA786A"/>
<path d="M99.1205 19.6896H91.6864C91.9272 21.4528 93.3369 22.5242 95.2267 22.5242C96.4505 22.516 97.6374 22.1046 98.6039 21.3538V22.8534C97.5572 23.5185 96.3386 23.8624 95.0987 23.8425C91.9851 23.8425 90.0206 21.9802 90.0206 19.2278C90.0206 16.3443 92.2625 14.5308 94.8579 14.5308C97.2307 14.5308 99.1769 16.0807 99.1769 19.0129C99.1791 19.2397 99.1603 19.4662 99.1205 19.6896ZM97.5264 18.5526C97.4883 16.7071 96.2097 15.849 94.838 15.849C94.0725 15.8344 93.3282 16.1018 92.7471 16.6003C92.1659 17.0989 91.7884 17.7937 91.6864 18.5526H97.5264Z" fill="#EA786A"/>
<path d="M55.1999 37.9152H47.9151V43.4199H46.1914V31.1577H47.9151V36.4826H55.1999V31.1577H56.9235V43.4199H55.1999V37.9152Z" fill="#EA786A"/>
<path d="M72.7947 39.4652H65.3605C65.6028 41.2285 67.011 42.2999 68.9023 42.2999C70.1246 42.2908 71.3099 41.8795 72.275 41.1294V42.629C71.2283 43.2942 70.0097 43.6381 68.7697 43.6181C65.6546 43.6181 63.6902 41.7558 63.6902 39.0034C63.6902 36.12 65.932 34.3064 68.5289 34.3064C70.9034 34.3064 72.848 35.8563 72.848 38.787C72.8514 39.0142 72.8336 39.2413 72.7947 39.4652ZM71.2005 38.3298C71.164 36.4842 69.8838 35.6262 68.5122 35.6262C67.7467 35.6119 67.0026 35.8794 66.4215 36.3779C65.8404 36.8764 65.4628 37.571 65.3605 38.3298H71.2005Z" fill="#EA786A"/>
<path d="M78.691 38.9699C78.691 36.12 80.8963 34.3064 83.2509 34.3064C84.6972 34.3064 86.0688 34.9495 86.8278 36.152L87.032 34.5045H88.4234V43.42H87.032L86.8278 41.7893C86.0657 42.9918 84.6941 43.6181 83.2509 43.6181C80.8963 43.6181 78.691 41.7893 78.691 38.9699ZM86.7683 38.9546C86.7683 37.042 85.3601 35.7237 83.5984 35.7237C81.8 35.7237 80.4101 37.042 80.4101 38.9699C80.4101 40.8978 81.8 42.2008 83.5984 42.2008C85.3647 42.2008 86.7729 40.8825 86.7729 38.9546H86.7683Z" fill="#EA786A"/>
<path d="M95.6183 30.2358H97.3237V43.4201H95.6183V30.2358Z" fill="#EA786A"/>
<path d="M106.611 34.5046H109.484V35.8229H106.611V40.2426C106.611 41.6279 107.538 42.204 108.816 42.204C109.115 42.1991 109.412 42.1716 109.706 42.1217V43.4399C109.315 43.5067 108.918 43.5399 108.521 43.539C106.352 43.539 104.942 42.3853 104.942 40.3096V35.8229H103.441V34.5046H104.979V32.4106H106.611V34.5046Z" fill="#EA786A"/>
<path d="M117.502 35.576H117.522C118.095 34.814 119.17 34.3065 120.393 34.3065C122.6 34.3065 124.008 35.4266 124.008 37.5206V43.4201H122.296V38.0479C122.296 36.4828 121.534 35.7238 119.997 35.7238C118.661 35.7238 117.494 36.4157 117.494 37.8986V43.4201H115.789V30.2358H117.502V35.576Z" fill="#EA786A"/>
<path d="M28.2385 21.6951C29.0006 21.497 29.6665 21.3492 30.3204 21.1449C31.9724 20.6268 33.3851 19.7733 34.2919 18.228C34.5739 17.7479 34.5541 17.661 33.9948 17.6184C31.6798 17.4523 29.5964 18.0253 27.8393 19.5996C27.696 19.7276 27.6046 19.9257 27.3074 19.9836C27.7434 19.0061 28.2856 18.0795 28.9244 17.2206C30.3706 15.279 32.204 13.944 34.6699 13.6544C36.4652 13.4426 38.1843 13.8068 39.8637 14.4164C40.1 14.5018 40.1518 14.6633 40.0847 14.8965C39.0484 18.4947 36.895 21.4284 32.7694 21.9816C31.6036 22.1493 29.1088 22.0335 28.2385 21.6951Z" fill="#469396"/>
<path d="M27.414 22.0091C27.414 23.5453 26.8501 24.3667 25.9418 24.9672C24.5397 25.8938 22.9532 26.3388 21.3317 26.6847C19.2727 27.1236 17.1711 27.2943 15.1061 27.6982C14.4064 27.8061 13.7303 28.0324 13.1066 28.3672C12.2607 28.8595 12.1693 29.5666 12.8505 30.2601C12.977 30.3881 13.1858 30.5192 13.0319 30.7173C12.878 30.9154 12.689 30.7325 12.5427 30.6472C11.6694 30.1321 11.4881 29.114 12.0855 28.1889C12.4402 27.6727 12.9256 27.2598 13.4921 26.9926C14.8348 26.2885 16.2994 25.9639 17.7594 25.6393C19.4998 25.2522 21.2646 24.9595 22.967 24.42C23.6795 24.2147 24.3571 23.9033 24.9771 23.4965C25.701 22.9905 26.0683 22.3352 25.9677 21.4314C25.8733 20.5917 25.3414 20.1208 24.6479 19.7764C24.3934 19.6499 24.1115 19.5798 23.8463 19.4716C23.729 19.4243 23.5567 19.3923 23.604 19.211C23.6421 19.0738 23.7899 19.0784 23.9088 19.0829C25.8016 19.1652 27.4323 20.5429 27.414 22.0091Z" fill="#469396"/>
<path d="M27.411 25.2233C27.9124 25.4991 28.3361 25.8816 28.8405 26.1468C29.4501 26.4653 30.075 26.6772 30.7684 26.6391C30.9208 26.6299 31.1007 26.6497 31.1845 26.508C31.2683 26.3663 31.1144 26.2337 31.0321 26.1179C30.6772 25.6074 30.2213 25.1753 29.6925 24.8484C29.1637 24.5214 28.5734 24.3067 27.9581 24.2174C27.9353 24.0757 28.0221 24.0543 28.1014 24.0406C28.9472 23.8882 29.7915 23.7983 30.6556 23.9248C32.8335 24.2448 34.0771 25.906 34.6333 27.6937C34.7141 27.9543 34.5769 28.061 34.3636 28.1418C32.1873 28.9723 30.1405 28.8199 28.4839 26.9332C28.0288 26.4306 27.6656 25.8518 27.411 25.2233Z" fill="#469396"/>
<path d="M27.1565 19.2354C27.2174 18.5496 27.3531 17.9826 27.1671 17.4233C27.0468 17.0652 26.9873 16.5089 26.6078 16.5211C26.2863 16.5379 26.2543 17.1139 26.2101 17.4706C26.1092 18.0737 26.1729 18.6929 26.3945 19.2628C25.7876 18.8018 25.3404 18.1623 25.1158 17.434C24.651 16.0761 25.1463 14.9331 25.9876 13.8891C26.011 13.8541 26.0415 13.8243 26.0771 13.8016C26.1127 13.779 26.1526 13.7639 26.1943 13.7575C26.2359 13.751 26.2785 13.7533 26.3193 13.7642C26.36 13.775 26.3981 13.7942 26.431 13.8205C28.1943 14.7822 28.6287 17.6306 27.1565 19.2354Z" fill="#469396"/>
<path d="M12.6798 30.9856C12.5274 31.2797 12.2745 31.2767 12.0702 31.3635C11.5506 31.5784 11.0674 31.8421 10.723 32.3023C10.627 32.4304 10.4502 32.5614 10.5447 32.7382C10.627 32.8906 10.819 32.8266 10.9638 32.8205C11.6411 32.7829 12.287 32.5231 12.8018 32.0814C12.913 31.9899 12.9786 31.8314 13.1553 31.8253C12.8764 33.3996 11.2275 34.695 9.6242 34.5914C9.29044 34.5701 8.9582 34.5091 8.62597 34.4588C8.24649 34.4009 8.1398 34.2058 8.23277 33.8187C8.65492 32.0509 9.90919 31.0161 11.738 30.9825C12.0474 30.9795 12.3629 30.9856 12.6798 30.9856Z" fill="#469396"/>
<path d="M18.6906 49.5634C18.6281 47.256 19.1615 45.0813 19.6965 42.9065C20.6764 38.9212 21.8834 34.9923 22.7643 30.9811C22.9442 30.1596 23.0798 29.3275 23.2657 28.5076C23.3404 28.1799 23.3754 27.6801 23.8266 27.7456C24.2533 27.802 24.0597 28.2714 24.0658 28.5609C24.1161 31.4368 23.4364 34.1998 22.7354 36.9583C21.8865 40.3004 20.8486 43.5954 20.1964 46.9878C19.8905 48.4513 19.7302 49.9414 19.7178 51.4364C19.7016 52.4312 19.884 53.4193 20.2543 54.3427C20.3274 54.518 20.492 54.7496 20.2543 54.8822C20.0165 55.0148 19.8611 54.7694 19.7468 54.5927C19.1585 53.6782 18.9406 52.6419 18.8004 51.5843C18.7025 50.9154 18.6658 50.239 18.6906 49.5634Z" fill="#EA786A"/>
<path d="M2.36074 5.28007C2.89262 5.51172 3.38335 5.72203 3.86951 5.93996C3.98991 5.99331 4.1545 6.05122 4.09811 6.21886C4.04173 6.3865 3.86951 6.31792 3.75064 6.2783C2.81032 5.95825 1.83952 5.91558 0.855008 5.93996C0.752628 5.94217 0.650339 5.93245 0.550205 5.91101C0.304839 5.85919 0.0427078 5.81195 3.54103e-05 5.49038C-0.036541 5.19472 0.152437 5.02251 0.382563 4.89297C1.0649 4.51651 1.83294 4.3228 2.6122 4.3306C3.89673 4.30386 5.16905 4.58445 6.32318 5.149C8.50404 6.22648 10.5157 7.5859 12.6189 8.78987C13.7284 9.42539 14.8318 10.0731 16.0174 10.5654C16.4981 10.7742 17.0062 10.9132 17.5262 10.9784C18.9222 11.1308 19.9403 10.5577 20.6291 9.35833C20.8947 8.85161 21.1224 8.32591 21.3103 7.78555C21.6151 6.99763 21.9718 6.23258 22.6393 5.67174C22.7612 5.56963 22.8968 5.38979 23.0721 5.53305C23.2474 5.67631 23.1072 5.84548 23.0386 5.99026C22.6823 6.80787 22.3829 7.6491 22.1425 8.50793C21.8803 9.3629 21.5923 10.2057 21.0254 10.922C20.7267 11.3123 20.318 11.6043 19.8519 11.7602C18.6989 12.1726 17.4338 12.1416 16.3024 11.6733C14.5742 10.9677 13.0243 9.9527 11.4302 9.00324C9.63029 7.92576 7.9051 6.70654 5.9437 5.90034C4.99424 5.51019 4.0402 5.12004 2.98101 5.15814C2.8469 5.15814 2.71278 5.17339 2.58019 5.19167C2.50439 5.21406 2.4309 5.24366 2.36074 5.28007Z" fill="#EA786A"/>
<path d="M22.0983 17.6184C22.2736 13.7017 22.4656 9.78498 23.7747 6.0359C24.4026 4.23299 25.1555 2.48494 26.5804 1.13162C27.0334 0.674152 27.5958 0.339989 28.2142 0.160817C28.4001 0.112049 28.6516 -0.0296845 28.7491 0.229398C28.8466 0.488481 28.5967 0.589066 28.4321 0.686603C27.5108 1.19021 26.7501 1.94346 26.2375 2.85985C25.0793 4.87003 24.4544 7.06766 23.9927 9.31558C23.4943 11.7403 23.3693 14.2122 23.1453 16.6735C22.9472 18.8529 23.2017 21.0033 23.4394 23.1582C23.4592 23.332 23.5507 23.591 23.351 23.6581C23.1072 23.7389 23.0264 23.4615 22.9563 23.2893C22.5418 22.2682 22.3681 21.1892 22.2217 20.1026C22.1289 19.2779 22.0877 18.4482 22.0983 17.6184Z" fill="#EA786A"/>
<path d="M18.6982 44.5021C18.6876 44.6545 18.7653 44.9075 18.4864 44.9593C18.2349 45.0005 18.206 44.7703 18.1679 44.5905C17.1955 39.9423 15.7294 35.4235 14.5758 30.821C14.481 30.4464 14.4067 30.0668 14.3533 29.6841C14.3228 29.4601 14.2725 29.1888 14.5529 29.0638C14.8333 28.9389 15.0208 29.1675 15.1854 29.3503C15.4185 29.6396 15.5944 29.9706 15.7035 30.3257C16.5036 32.531 16.9928 34.8185 17.4927 37.103C17.924 39.0751 18.3035 41.0563 18.5504 43.0619C18.6083 43.5222 18.6464 43.9916 18.6982 44.5021Z" fill="#EA786A"/>
<path d="M19.1249 19.403C19.1661 20.674 18.4788 21.5595 17.7533 22.4053C16.7216 23.6017 15.5085 24.638 14.6276 25.9669C14.562 26.066 14.4752 26.1666 14.3365 26.1193C14.1978 26.0721 14.1841 25.9182 14.2039 25.7749C14.2859 25.3615 14.4369 24.9648 14.6504 24.6014C15.1945 23.6093 15.8696 22.7056 16.496 21.7668C17.7152 19.9242 17.6908 18.1091 16.461 16.3016C16.1562 15.8444 15.827 15.3872 15.5206 14.93C15.4231 14.7776 15.2753 14.5978 15.4764 14.4393C15.641 14.3097 15.798 14.45 15.9337 14.5551C17.0005 15.4421 17.9697 16.419 18.6586 17.6412C18.9664 18.1975 19.1661 18.798 19.1249 19.403Z" fill="#EA786A"/>
<path d="M15.4825 7.13615C15.4916 8.16333 16.5584 9.63248 17.5307 9.92814C17.7454 10.0082 17.9767 10.0329 18.2034 9.99985C18.4301 9.96682 18.6448 9.87716 18.8277 9.73917C18.9389 9.65382 19.0883 9.51361 19.2224 9.67668C19.3565 9.83975 19.2041 9.95862 19.1066 10.0684C18.9349 10.2667 18.7161 10.4187 18.4703 10.5103C18.2245 10.6019 17.9595 10.6302 17.6999 10.5926C15.9442 10.396 14.1672 8.07951 14.4233 6.32537C14.5909 5.17017 15.3941 4.5819 16.5417 4.82726C17.0619 4.93574 17.551 5.15968 17.9731 5.48255C18.3951 5.80542 18.7393 6.21897 18.9801 6.69266C19.0548 6.83134 19.1874 7.02337 18.9908 7.13919C18.7942 7.25502 18.7454 7.03861 18.6616 6.93498C18.2699 6.43967 17.8447 5.99314 17.2031 5.82549C17.0011 5.76688 16.7882 5.75643 16.5815 5.79496C16.3747 5.83349 16.1799 5.91995 16.0126 6.04738C15.8453 6.17481 15.7102 6.33968 15.6182 6.52876C15.5261 6.71784 15.4796 6.92586 15.4825 7.13615Z" fill="#EA786A"/>
</g>
<defs>
<clipPath id="clip0_47_11">
<rect width="124" height="54.8463" fill="white" transform="translate(0 0.0769043)"/>
</clipPath>
</defs>
</svg>
